<?xml version="1.0" standalone="no"?>
<!DOCTYPE svg PUBLIC "-//W3C//DTD SVG 1.1//EN" "http://www.w3.org/Graphics/SVG/1.1/DTD/svg11.dtd" >
<svg xmlns="http://www.w3.org/2000/svg">
<metadata>
Created by FontPrep 20130207 at Mon Sep  1 15:56:59 2014
 By McQ
Copyright (c) 2012 by Super Spitze Prima Toll. All rights reserved.
</metadata>
<defs>
<font id="e00e7a6d2841f025d96010a5cd455804" horiz-adv-x='1024' >
  <font-face 
    font-family="SuperspitzeGrotesk-SemiBold"
    font-weight="600"
    font-stretch="normal"
    units-per-em="2048"
    panose-1="2 0 5 3 0 0 0 2 0 3"
    ascent="1536"
    descent="-512"
    x-height="950"
    cap-height="1462"
    bbox="-221 -727 2615 1968"
    underline-thickness="73"
    underline-position="-72"
    unicode-range="U+000D-FB04"
  />
<missing-glyph horiz-adv-x="731" 
 />
    <glyph glyph-name="afii61352" unicode="N&#xb0;" horiz-adv-x="2240" 
d="M1761 870q88 0 149 66q60 66 60 155t-60 153t-148 65q-88 0 -149 -65q-61 -64 -61 -154t60 -155t149 -65zM1364 1090q0 166 116 280t280 115q163 0 280 -115q117 -114 117 -280t-117 -281t-280 -115q-164 0 -280 115t-116 281zM1384 434v180h756v-180h-756zM184 0v1462
h262l570 -1149v1149h194v-1462h-241l-590 1149v-1149h-195z" />
    <glyph glyph-name="ff" unicode="ff" horiz-adv-x="1306" 
d="M403 754v-754h-219v754h-123v196h123v183q0 209 114 312t277 103q57 0 89 -12l-70 -197q-190 0 -191 -235v-154h357v183q0 209 113 312q114 103 275 103t275 -82v-45l-114 -114q-63 33 -140 32q-190 0 -190 -235v-154h151v-196h-151v-754h-219v754h-357z" />
    <glyph glyph-name="fi" unicode="fi" horiz-adv-x="1132" 
d="M1014 0h-219v754h-389v-754h-220v754h-125v196h125v183q0 205 125 310t303 105q137 0 253 -62t153 -169l-184 -90q-49 113 -207 112q-92 0 -158 -60t-65 -175v-154h530l78 -78v-872z" />
    <glyph glyph-name="fl" unicode="fl" horiz-adv-x="1179" 
d="M997 1536v-1323h84v-213h-215l-92 94v1368l72 74h151zM61 754v196h123v183q0 209 114 312t277 103q49 0 80 -10l-30 -201q-12 2 -31 2q-190 0 -191 -235v-154h152v-196h-152v-754h-219v754h-123z" />
    <glyph glyph-name="ffi" unicode="ffi" horiz-adv-x="1705" 
d="M1587 0h-219v754h-389v-754h-219v754h-357v-754h-219v754h-123v196h123v183q0 209 114 312t277 103q57 0 89 -12l-70 -197q-190 0 -191 -235v-154h357v183q0 205 125 310t303 105q137 0 253 -62t152 -169l-184 -90q-49 113 -207 112q-92 0 -158 -60t-65 -175v-154h530
l78 -78v-872z" />
    <glyph glyph-name="ffl" unicode="ffl" horiz-adv-x="1722" 
d="M1540 1536v-1323h84v-213h-215l-92 94v1368l72 74h151zM403 754v-754h-219v754h-123v196h123v183q0 209 114 312t277 103q57 0 89 -12l-70 -197q-190 0 -191 -235v-154h355v183q0 209 113 312q114 103 278 103q49 0 80 -10l-31 -201q-12 2 -31 2q-190 0 -190 -235v-154
h151v-196h-151v-754h-219v754h-355z" />
    <glyph glyph-name="f_f_j" unicode="ffj" horiz-adv-x="1705" 
d="M1368 -170v924h-389v-754h-219v754h-357v-754h-219v754h-123v196h123v183q0 209 114 312t277 103q57 0 89 -12l-70 -197q-190 0 -191 -235v-154h357v183q0 205 125 310t303 105q137 0 253 -62t152 -169l-184 -90q-49 113 -207 112q-92 0 -158 -60t-65 -175v-154h530
l78 -78v-1036q0 -186 -91 -273t-243 -87q-180 0 -290 162l190 98q27 -43 86 -43q59 -1 94 35t35 102z" />
    <glyph glyph-name="f_j" unicode="fj" horiz-adv-x="1132" 
d="M795 -170v924h-389v-754h-220v754h-125v196h125v183q0 205 125 310t303 105q137 0 253 -62t153 -169l-184 -90q-49 113 -207 112q-92 0 -158 -60t-65 -175v-154h530l78 -78v-1036q0 -186 -91 -273t-243 -87q-180 0 -291 162l191 98q27 -43 86 -43q59 -1 94 35t35 102z
" />
    <glyph glyph-name="gj" unicode="gj" horiz-adv-x="1617" 
d="M536 397q77 -1 128 53t51 132t-51 131t-128 53t-128 -53q-52 -53 -52 -131t52 -132t128 -53zM309 -184q0 -60 47 -99t131 -39h117q78 0 122 39t44 85t-30 76t-83 30h-256l-20 -2q-72 -30 -72 -90zM971 950v-196h-97q43 -90 44 -172q0 -160 -112 -272t-271 -111
q-90 0 -179 47q-30 -18 -30 -54t19 -58t56 -21h256q143 -1 229 -95t87 -220q0 -126 -104 -224t-265 -98h-117q-166 0 -270 92t-104 213q1 63 33 125t77 86q-86 66 -86 172t96 184q-79 98 -79 245t110 261t260 113q150 0 254 -88l72 71h121zM1184 1335q0 66 46 112t110 46
t111 -46q46 -47 46 -111t-46 -110t-112 -46q-67 0 -111 44t-44 111zM1255 -170v924h-127v196h269l78 -78v-1036q1 -186 -91 -273t-243 -87q-70 0 -117 20l41 213q33 -16 77 -16q44 -1 78 35t35 102z" />
    <glyph glyph-name=".notdef" horiz-adv-x="731" 
 />
    <glyph glyph-name=".null" horiz-adv-x="0" 
 />
    <glyph glyph-name=".null" horiz-adv-x="0" 
 />
    <glyph glyph-name="nonmarkingreturn" horiz-adv-x="681" 
 />
    <glyph glyph-name="CR" unicode="&#xd;" horiz-adv-x="675" 
 />
    <glyph glyph-name="space" unicode=" " horiz-adv-x="512" 
 />
    <glyph glyph-name="exclam" unicode="!" horiz-adv-x="741" 
d="M223 117q0 61 42 105q41 44 103 44t106 -44t44 -105t-44 -103t-105 -43q-61 0 -104 42q-42 43 -42 104zM254 401v1061h233v-1061h-233z" />
    <glyph glyph-name="quotedbl" unicode="&#x22;" horiz-adv-x="702" 
d="M403 995v541h259l-80 -541h-179zM82 995v541h258l-80 -541h-178z" />
    <glyph glyph-name="numbersign" unicode="#" horiz-adv-x="1495" 
d="M618 889l-86 -318h377l84 318h-375zM172 889v162h311l103 383h157v-76l-81 -307h376l103 383h157v-76l-84 -307h240v-162h-280l-87 -318h236v-163h-279l-110 -408h-158v76l90 332h-377l-110 -408h-158v76l90 332h-270v163h313l86 318h-268z" />
    <glyph glyph-name="dollar" unicode="$" horiz-adv-x="1292" 
d="M375 1080q0 -73 50 -121t144 -82v387q-86 -14 -140 -62t-54 -122zM967 389q-1 80 -61 125t-177 82v-395q98 14 168 61t70 127zM1190 368q0 -106 -75 -200q-131 -164 -386 -193v-157h-160v159q-168 21 -295 113t-172 242l191 69q23 -76 99 -127t177 -69v440
q-88 29 -150 57q-171 79 -224 201q-33 74 -33 172q0 179 120 285t287 129v139h160v-141q256 -27 381 -205l-158 -137q-65 90 -223 117v-437q84 -25 134 -42t121 -54t110 -79q40 -42 68 -110q28 -66 28 -172z" />
    <glyph glyph-name="percent" unicode="%" horiz-adv-x="1226" 
d="M351 1055q58 0 99 43q40 43 39 102q0 59 -38 103q-39 43 -99 43t-100 -43q-41 -43 -41 -103t41 -102q41 -43 99 -43zM1022 264q0 62 -41 108t-103 46t-104 -45t-43 -109q1 -64 43 -108q42 -45 104 -45t103 45t41 108zM66 1200q0 121 84 203t201 82q118 0 201 -82t83 -203
t-83 -204t-201 -83q-117 0 -201 83t-84 204zM878 549q118 0 200 -82t83 -203q0 -121 -83 -204q-82 -83 -200 -83t-202 83t-84 204t84 203t202 82zM61 0v39l943 1423h161v-37l-942 -1425h-162z" />
    <glyph glyph-name="ampersand" unicode="&#x26;" horiz-adv-x="1642" 
d="M324 475q0 -121 97 -206t225 -84t196 44t123 127l-359 430q-118 -12 -200 -101t-82 -210zM1540 0h-244l-176 197q-94 -113 -195 -169t-270 -57q-229 0 -391 154t-162 371q0 164 98 297t253 190l-226 266v213h893v-221h-585l538 -655l164 389h295v-199h-152l-143 -354
l303 -348v-74z" />
    <glyph glyph-name="quotesingle" unicode="'" horiz-adv-x="380" 
d="M82 995v541h258l-80 -541h-178z" />
    <glyph glyph-name="parenleft" unicode="(" horiz-adv-x="663" 
d="M274 717q0 -261 109 -495t260 -333l-68 -116q-188 96 -325 353t-137 591t137 591t325 353l68 -117q-153 -98 -261 -332t-108 -495z" />
    <glyph glyph-name="parenright" unicode=")" horiz-adv-x="663" 
d="M389 717q0 262 -108 495q-109 233 -261 332l68 117q188 -96 326 -353t137 -591q0 -334 -137 -591t-326 -353l-68 116q152 98 261 332q108 234 108 496z" />
    <glyph glyph-name="asterisk" unicode="*" horiz-adv-x="927" 
d="M383 1188l-6 350h174l-6 -350l332 115l51 -164l-334 -105l211 -278l-141 -101l-199 289l-199 -291l-141 103l209 278l-334 103l53 163z" />
    <glyph glyph-name="plus" unicode="+" horiz-adv-x="1011" 
d="M408 1108h196v-338h346v-197h-346v-340h-196v340h-347v197h347v338z" />
    <glyph glyph-name="comma" unicode="," horiz-adv-x="505" 
d="M387 201v-66l-274 -473h-154v68l178 471h250z" />
    <glyph glyph-name="hyphen" unicode="-" horiz-adv-x="847" 
d="M127 457v196h594v-196h-594z" />
    <glyph glyph-name="period" unicode="." horiz-adv-x="403" 
d="M41 131q0 66 47 114t113 48q65 0 113 -48t48 -114t-48 -113t-114 -47t-112 47q-47 47 -47 113z" />
    <glyph glyph-name="slash" unicode="/" horiz-adv-x="841" 
d="M31 -100v75l637 1559h143v-76l-637 -1558h-143z" />
    <glyph glyph-name="zero" unicode="0" horiz-adv-x="1363" 
d="M682 188q123 0 208 80q157 148 157 434q0 287 -157 435q-85 80 -208 80q-180 0 -272 -155t-92 -361q0 -205 92 -359t272 -154zM682 1434q193 0 330 -109q258 -205 259 -623q1 -417 -259 -622q-137 -109 -330 -109q-145 1 -261 63q-216 116 -293 399q-36 128 -36 269
q0 291 142 502q71 104 187 167t261 63z" />
    <glyph glyph-name="one" unicode="1" horiz-adv-x="655" 
d="M252 1210h-172v209h391v-1419h-219v1210z" />
    <glyph glyph-name="two" unicode="2" horiz-adv-x="1087" 
d="M104 1030q0 164 115 284t316 120t321 -112t119 -288q0 -176 -156 -348l-432 -475h617v-211h-922v172l561 647q107 121 107 210t-62 149t-152 61q-89 0 -148 -62q-58 -63 -58 -147q0 -43 16 -80l-209 -82q-33 74 -33 162z" />
    <glyph glyph-name="three" unicode="3" horiz-adv-x="1091" 
d="M508 188q96 0 178 70t82 176t-78 174q-78 70 -192 70t-152 -10l-63 170l376 372h-538v209h833v-178l-385 -389q182 -20 301 -135t119 -297t-146 -316q-146 -133 -351 -133q-154 -1 -269 61t-172 165l185 118q36 -59 106 -93t166 -34z" />
    <glyph glyph-name="four" unicode="4" horiz-adv-x="1189" 
d="M745 473v606l-450 -606h450zM745 0v279h-684v194l730 946h174v-946h174v-194h-174v-279h-220z" />
    <glyph glyph-name="five" unicode="5" horiz-adv-x="1169" 
d="M535 -31q-121 0 -223 33t-145 65q-44 32 -75 66q43 68 119 178q137 -123 321 -123q125 0 224 69q98 69 98 194t-98 193t-230 69q-132 0 -245 -58l-140 140l99 624h745v-209h-579l-52 -327q113 43 228 43q207 0 351 -133t144 -346t-143 -345t-399 -133z" />
    <glyph glyph-name="six" unicode="6" horiz-adv-x="1054" 
d="M526 188q102 0 173 74t71 176t-70 176t-174 74t-174 -74t-70 -175t72 -176q70 -75 172 -75zM545 889q178 0 313 -126t135 -323q0 -196 -138 -332t-330 -136q-191 0 -327 136t-137 330q0 137 64 240l455 741h241l-334 -536q29 6 58 6z" />
    <glyph glyph-name="seven" unicode="7" horiz-adv-x="993" 
d="M47 1079v340h946v-209l-678 -1210h-249l684 1210h-484v-131h-219z" />
    <glyph glyph-name="eight" unicode="8" horiz-adv-x="1155" 
d="M385 1036q-1 -76 55 -132t137 -56t136 56t55 133t-54 132t-136 55t-138 -56t-55 -132zM577 180q105 0 178 71t73 168t-72 168t-180 71t-178 -72q-70 -70 -70 -167t72 -168t177 -71zM578 -29q-195 0 -335 130t-141 317q0 111 52 202t139 138q-63 40 -101 116t-38 162
q0 168 125 283t300 115t300 -115t125 -283q0 -84 -38 -160t-102 -118q86 -47 137 -138t52 -202q0 -186 -140 -316t-335 -131z" />
    <glyph glyph-name="nine" unicode="9" horiz-adv-x="1046" 
d="M539 1227q-100 0 -167 -72t-67 -170t67 -169t167 -71t167 71t66 169q0 98 -66 170q-67 72 -167 72zM520 555q-180 0 -309 120t-129 309q0 190 134 320t322 130t323 -130q134 -130 134 -319q0 -121 -75 -248l-451 -737h-242l344 557q-16 -2 -51 -2z" />
    <glyph glyph-name="colon" unicode=":" horiz-adv-x="505" 
d="M414 789q0 -67 -47 -113t-114 -47q-67 1 -114 47t-47 113t47 114t114 47t114 -47t47 -114zM92 131q0 66 47 114t114 48t114 -48t47 -114t-47 -113t-114 -47t-114 47t-47 113z" />
    <glyph glyph-name="semicolon" unicode=";" horiz-adv-x="581" 
d="M432 201v-66l-274 -473h-154v68l178 471h250zM471 787q0 -67 -47 -113t-114 -47q-68 1 -114 47t-46 113t47 115t113 48t114 -48q47 -48 47 -115z" />
    <glyph glyph-name="less" unicode="&#x3c;" horiz-adv-x="1011" 
d="M930 147l-889 463v125l889 463v-203l-654 -321l654 -324v-203z" />
    <glyph glyph-name="equal" unicode="=" horiz-adv-x="1218" 
d="M164 274v197h889v-197h-889zM164 698v197h889v-197h-889z" />
    <glyph glyph-name="greater" unicode="&#x3e;" horiz-adv-x="1011" 
d="M971 610l-889 -463v203l653 324l-653 321v203l889 -463v-125z" />
    <glyph glyph-name="question" unicode="?" horiz-adv-x="1071" 
d="M338 117q0 61 42 105t103 44t105 -44t45 -105q0 -61 -44 -103q-43 -42 -105 -43q-62 1 -104 43t-42 103zM539 1493q173 -1 285 -107t112 -257t-119 -299l-98 -120q-119 -146 -119 -309h-233q0 210 115 366q48 65 97 121q115 134 115 230q0 66 -42 113t-114 47t-118 -48
q-45 -48 -45 -112t57 -133l-156 -154q-66 47 -102 131t-37 156q0 162 115 268t287 107z" />
    <glyph glyph-name="at" unicode="@" horiz-adv-x="2086" 
d="M1017 162q124 0 186 80t63 207q0 127 -65 207t-185 79q-120 0 -187 -79q-65 -78 -65 -206t64 -208t189 -80zM1067 -342q217 0 403 113l105 -158q-233 -137 -501 -137t-492 125q-223 125 -357 348q-133 223 -133 494t133 495t357 350q224 125 485 125q397 0 663 -279
q265 -280 265 -706q0 -207 -35 -315l-113 -113h-497l-68 68q-143 -90 -281 -91q-184 -1 -310 135t-126 338t126 338t310 136q121 0 236 -56l82 82h127v-757h328q20 129 20 235q0 340 -199 570t-531 230t-550 -230q-219 -230 -219 -555t219 -555t553 -230z" />
    <glyph glyph-name="A" unicode="A" 
d="M766 1221l-258 -674h516zM911 1462l580 -1462h-256l-125 326h-688l-125 -326h-256l580 1462h290z" />
    <glyph glyph-name="B" unicode="B" horiz-adv-x="1382" 
d="M700 1241h-286v-381h307q256 0 256 189q0 84 -67 138t-210 54zM788 647h-374v-426h327q293 0 293 211q0 90 -59 153q-60 62 -187 62zM184 0v1462h531q243 0 363 -116t120 -279q0 -199 -176 -301q248 -104 248 -365q0 -181 -124 -291t-358 -110h-604z" />
    <glyph glyph-name="C" unicode="C" horiz-adv-x="1449" 
d="M844 197q215 0 356 155l178 -145q-102 -113 -243 -174t-299 -62q-301 0 -523 220q-221 220 -221 541t221 541t523 220t518 -211l-176 -152q-139 136 -344 136q-204 0 -348 -158t-144 -375t143 -377q144 -159 359 -159z" />
    <glyph glyph-name="D" unicode="D" horiz-adv-x="1443" 
d="M416 1241v-1018h233q185 0 319 107q69 55 108 157q40 101 40 243q0 279 -148 404q-132 107 -319 107h-233zM184 0v1462h480q288 0 488 -192t200 -539t-200 -539t-488 -192h-480z" />
    <glyph glyph-name="E" unicode="E" horiz-adv-x="1349" 
d="M184 0v1462h1053v-221h-823v-373h778v-221h-778v-424h823v-223h-1053z" />
    <glyph glyph-name="F" unicode="F" horiz-adv-x="1249" 
d="M184 0v1462h963v-221h-731v-410h688v-221h-688v-610h-232z" />
    <glyph glyph-name="G" unicode="G" horiz-adv-x="1632" 
d="M838 197q254 0 397 174v184h-303v221h536v-508q-268 -297 -630 -297q-315 0 -531 217q-215 216 -215 538t218 544t522 223q304 0 534 -213l-162 -172q-152 158 -368 158t-356 -159t-140 -374t141 -376q142 -160 357 -160z" />
    <glyph glyph-name="H" unicode="H" horiz-adv-x="1589" 
d="M184 0v1462h234v-620h753v620h234v-1462h-234v621h-753v-621h-234z" />
    <glyph glyph-name="I" unicode="I" horiz-adv-x="643" 
d="M205 0v1462h233v-1462h-233z" />
    <glyph glyph-name="J" unicode="J" horiz-adv-x="1085" 
d="M674 453v1009h227v-1013q0 -223 -119 -351t-340 -127q-154 0 -262 71t-160 198l197 112q84 -162 225 -162q112 0 172 71t60 192z" />
    <glyph glyph-name="K" unicode="K" horiz-adv-x="1359" 
d="M184 0v1462h236v-712l555 712h299l-490 -608l555 -854h-286l-428 664l-205 -258v-406h-236z" />
    <glyph glyph-name="L" unicode="L" horiz-adv-x="1167" 
d="M184 0v1462h236v-1239h727v-223h-963z" />
    <glyph glyph-name="M" unicode="M" horiz-adv-x="1894" 
d="M184 0v1462h238l526 -741l525 741h237v-1462h-231v1073l-451 -641h-162l-446 637v-1069h-236z" />
    <glyph glyph-name="N" unicode="N" horiz-adv-x="1630" 
d="M184 0v1462h281l747 -1140v1140h234v-1462h-303l-723 1104v-1104h-236z" />
    <glyph glyph-name="O" unicode="O" horiz-adv-x="1712" 
d="M856 197q221 0 368 157q146 158 146 377t-146 377t-368 158t-368 -158t-146 -377t146 -377q147 -157 368 -157zM856 1493q316 0 540 -219t224 -543t-224 -542t-540 -218t-540 218t-224 542t224 543q225 219 540 219z" />
    <glyph glyph-name="P" unicode="P" horiz-adv-x="1286" 
d="M696 1241h-280v-410h280q123 1 200 51t77 144t-68 154t-209 61zM184 0v1462h527q347 0 455 -279q28 -73 28 -149q0 -182 -126 -303t-357 -121h-295v-610h-232z" />
    <glyph glyph-name="Q" unicode="Q" horiz-adv-x="1753" 
d="M854 197q164 0 297 96l-143 145l163 162l132 -133q66 119 65 264q0 219 -145 377t-367 158t-368 -158t-146 -377t145 -377q146 -157 367 -157zM855 1493q315 0 539 -219t224 -543q0 -248 -139 -442l57 -58h115v-231h-211l-123 123q-203 -152 -463 -152q-315 0 -539 218
q-223 218 -223 542t224 543q225 219 539 219z" />
    <glyph glyph-name="R" unicode="R" horiz-adv-x="1370" 
d="M696 1241h-280v-410h280q123 1 200 51t77 144t-68 154t-209 61zM184 0v1462h527q347 0 455 -279q28 -73 28 -171t-56 -196q-56 -97 -165 -150l377 -666h-269l-338 610h-327v-610h-232z" />
    <glyph glyph-name="S" unicode="S" horiz-adv-x="1421" 
d="M725 -29q-219 1 -393 97t-230 264l213 69q31 -92 149 -148t277 -56t263 77q63 48 63 114q0 124 -178 181q-80 27 -175 51q-96 24 -192 58t-176 79q-80 46 -129 127t-49 191q0 197 163 307t369 111q365 0 529 -211l-176 -137q-49 59 -145 92t-216 33q-119 0 -203 -51
q-83 -51 -83 -133t68 -137q68 -54 168 -79q101 -24 220 -60t220 -77t169 -129t68 -206t-58 -201q-99 -143 -342 -202q-100 -24 -194 -24z" />
    <glyph glyph-name="T" unicode="T" horiz-adv-x="1091" 
d="M428 0v1241h-408v221h1051v-221h-407v-1241h-236z" />
    <glyph glyph-name="U" unicode="U" horiz-adv-x="1509" 
d="M1100 594v868h225v-872q0 -305 -156 -462q-155 -157 -413 -157t-415 157t-157 462v872h228v-868q0 -201 98 -299t246 -98t246 98t98 299z" />
    <glyph glyph-name="V" unicode="V" horiz-adv-x="1376" 
d="M1356 1462l-522 -1462h-291l-523 1462h259l409 -1194l410 1194h258z" />
    <glyph glyph-name="W" unicode="W" horiz-adv-x="1937" 
d="M1917 1462l-514 -1462h-305l-129 401l-127 -401h-307l-515 1462h261l415 -1224l150 491l-232 733h228l125 -409l129 409h227l-233 -733l151 -491l416 1224h260z" />
    <glyph glyph-name="X" unicode="X" horiz-adv-x="1261" 
d="M1229 1462l-451 -721l463 -741h-280l-330 537l-330 -537h-281l463 741l-450 721h274l324 -528l323 528h275z" />
    <glyph glyph-name="Y" unicode="Y" horiz-adv-x="1341" 
d="M553 0v610l-533 852h275l377 -612l375 612h274l-533 -852v-610h-235z" />
    <glyph glyph-name="Z" unicode="Z" horiz-adv-x="1327" 
d="M1225 0h-1123v213l809 1028h-780v221h1079v-213l-813 -1036h828v-213z" />
    <glyph glyph-name="bracketleft" unicode="[" horiz-adv-x="618" 
d="M164 1716h434v-151h-274v-1667h274v-152h-434v1970z" />
    <glyph glyph-name="backslash" unicode="\" horiz-adv-x="841" 
d="M811 -100h-143l-637 1558v76h143l637 -1559v-75z" />
    <glyph glyph-name="bracketright" unicode="]" horiz-adv-x="618" 
d="M20 1716h435v-1970h-435v152h275v1667h-275v151z" />
    <glyph glyph-name="asciicircum" unicode="^" horiz-adv-x="882" 
d="M61 868l318 594h125l317 -594h-203l-178 332l-178 -332h-201z" />
    <glyph glyph-name="underscore" unicode="_" horiz-adv-x="892" 
d="M61 -168v168h770v-168h-770z" />
    <glyph glyph-name="grave" unicode="`" horiz-adv-x="1075" 
d="M299 1374q0 80 78 109q35 10 43 10q61 0 98 -47q101 -119 242 -279l-72 -73q-297 154 -328 168q-61 32 -61 112z" />
    <glyph glyph-name="a" unicode="a" horiz-adv-x="1103" 
d="M500 162q108 0 162 78q53 78 53 178h-246q-94 0 -132 -37t-38 -88t47 -91q46 -40 154 -40zM920 674v-461h81v-213h-163l-88 88q-94 -111 -268 -111q-174 -1 -282 87t-108 233q0 214 222 274q75 20 173 21h218v55q1 61 -57 98t-132 37q-129 0 -176 -94l-184 84
q84 201 372 201q162 0 277 -76t115 -223z" />
    <glyph glyph-name="b" unicode="b" horiz-adv-x="1218" 
d="M642 188q118 0 200 83t82 204t-82 204t-200 83t-198 -83t-80 -204t80 -204t198 -83zM164 0v1462l74 74h145v-678q115 115 276 115q203 -1 345 -147t143 -351q0 -205 -142 -351t-348 -147q-168 0 -276 115l-92 -92h-125z" />
    <glyph glyph-name="c" unicode="c" horiz-adv-x="968" 
d="M562 762q-112 0 -190 -85t-79 -201q1 -116 79 -202t186 -86t190 91l170 -134q-150 -168 -351 -168q-201 -1 -348 145t-147 353t146 352t349 146q99 0 191 -39t139 -107l-152 -153q-71 88 -183 88z" />
    <glyph glyph-name="d" unicode="d" horiz-adv-x="1241" 
d="M577 188q117 0 197 83t80 204t-80 204t-198 83t-199 -83q-82 -83 -82 -204t82 -204t200 -83zM559 973q162 0 277 -115v604l73 74h146v-1323h84v-213h-209l-92 92q-109 -115 -277 -115q-205 1 -347 147t-142 351t142 351t345 147z" />
    <glyph glyph-name="e" unicode="e" horiz-adv-x="1044" 
d="M538 778q-87 0 -153 -52t-82 -134h461q-10 80 -74 133t-152 53zM522 182q152 0 236 133l180 -98q-62 -104 -164 -172t-235 -68q-201 1 -334 147t-133 350t133 351t330 147t319 -139q122 -140 129 -335l-82 -80h-608q8 -104 79 -170q70 -66 150 -66z" />
    <glyph glyph-name="f" unicode="f" horiz-adv-x="645" 
d="M61 754v196h125v183q0 209 114 312t275 103t275 -82v-45l-115 -114q-63 33 -139 32q-190 0 -190 -235v-154h151v-196h-151v-754h-220v754h-125z" />
    <glyph glyph-name="g" unicode="g" horiz-adv-x="1075" 
d="M536 397q77 -1 128 53t51 132t-51 131t-128 53t-128 -53q-52 -53 -52 -131t52 -132t128 -53zM309 -184q0 -60 47 -99t131 -39h117q78 0 122 39t44 85t-30 76t-83 30h-256l-20 -2q-72 -30 -72 -90zM971 950v-196h-97q43 -90 44 -172q0 -160 -112 -272t-271 -111
q-90 0 -179 47q-30 -18 -30 -54t19 -58t56 -21h256q143 -1 229 -95t87 -220q0 -126 -104 -224t-265 -98h-117q-166 0 -270 92t-104 213q1 63 33 125t77 86q-86 66 -86 172t96 184q-79 98 -79 245t110 261t260 113q150 0 254 -88l72 71h121z" />
    <glyph glyph-name="h" unicode="h" horiz-adv-x="1112" 
d="M969 569v-569h-224v569q0 89 -47 137t-127 48t-134 -43t-54 -107v-604h-219v1462l74 74h145v-668q111 96 250 96t237 -98t99 -297z" />
    <glyph glyph-name="i" unicode="i" horiz-adv-x="546" 
d="M121 1335q0 66 46 112t109 46q62 0 110 -46q48 -47 48 -111t-46 -110t-110 -46t-111 44q-46 44 -46 111zM403 0h-219v754h-82v196h224l77 -78v-872z" />
    <glyph glyph-name="j" unicode="j" horiz-adv-x="571" 
d="M137 1335q0 66 46 112q45 46 109 46t111 -46q47 -47 47 -111t-46 -110t-110 -46t-110 44t-47 111zM209 -170v924h-127v196h268l78 -78v-1036q0 -186 -91 -273t-243 -87q-180 0 -291 162l191 98q29 -43 87 -43q58 -1 93 35t35 102z" />
    <glyph glyph-name="k" unicode="k" horiz-adv-x="1091" 
d="M379 754v-316l254 316h-254zM383 0h-219v1462l72 74h147v-586h547v-127l-213 -260l375 -563h-250l-262 397l-197 -241v-156z" />
    <glyph glyph-name="l" unicode="l" horiz-adv-x="569" 
d="M377 1536v-1323h84v-213h-215l-92 94v1368l71 74h152z" />
    <glyph glyph-name="m" unicode="m" horiz-adv-x="1695" 
d="M406 614v-614h-220v754h-84v196h177l92 -92q133 111 289 111t245 -129q139 129 314 129q141 -1 237 -101t96 -295v-573h-219v573q0 93 -45 143t-126 50t-132 -45t-51 -113v-608h-217v573q0 93 -46 143t-125 50t-132 -43t-53 -109z" />
    <glyph glyph-name="n" unicode="n" horiz-adv-x="1132" 
d="M989 573v-573h-221v573q0 89 -48 137t-128 48t-134 -44t-55 -110v-604h-219v754h-82v196h174l91 -88q133 106 279 106t244 -98t99 -297z" />
    <glyph glyph-name="o" unicode="o" horiz-adv-x="1136" 
d="M295 475q1 -117 79 -202t194 -85t195 85t79 202t-78 201t-196 84t-196 -84t-77 -201zM72 475q0 209 146 353t350 143q204 1 350 -143t147 -353q0 -209 -146 -353q-147 -144 -351 -144t-350 144t-146 353z" />
    <glyph glyph-name="p" unicode="p" horiz-adv-x="1241" 
d="M666 188q118 0 200 83t82 204t-82 204t-200 83t-199 -83q-80 -83 -80 -204t80 -204t199 -83zM406 -512h-220v1266h-84v196h181l106 -108q123 131 309 131q186 -1 329 -147q142 -146 142 -351t-142 -351t-345 -147q-164 0 -276 113v-602z" />
    <glyph glyph-name="q" unicode="q" horiz-adv-x="1218" 
d="M577 188q117 0 197 83t80 204t-80 204t-198 83t-199 -83q-82 -83 -82 -204t82 -204t200 -83zM1055 -512h-219v602q-119 -113 -275 -113q-205 1 -347 147t-142 351t142 351t345 147q158 0 277 -115l92 92h127v-1462z" />
    <glyph glyph-name="r" unicode="r" horiz-adv-x="755" 
d="M406 586v-586h-220v754h-84v196h177l104 -104q86 123 238 123q49 0 94 -15l-64 -229q-35 12 -87 12t-105 -44t-53 -107z" />
    <glyph glyph-name="s" unicode="s" horiz-adv-x="983" 
d="M901 260q1 -131 -125 -207t-276 -76q-150 1 -262 61q-113 60 -156 185l205 62q16 -51 81 -77q66 -26 136 -26t120 25t50 64t-37 55q-71 31 -165 58t-140 49t-100 57q-105 73 -105 205t110 205q111 73 235 73t221 -38t147 -104l-166 -116q-80 65 -162 65t-122 -24t-40 -63
q0 -40 56 -67q38 -19 179 -59t228 -108q88 -68 88 -199z" />
    <glyph glyph-name="t" unicode="t" horiz-adv-x="626" 
d="M61 754v196h123v293l74 74h145v-367h152v-196h-152v-541h84v-213h-208l-95 94v660h-123z" />
    <glyph glyph-name="u" unicode="u" horiz-adv-x="1107" 
d="M555 -23q-172 0 -292 117t-120 320v536h224v-536q0 -109 53 -167q53 -59 135 -59t135 58t53 168v536h222v-536q0 -203 -119 -320t-291 -117z" />
    <glyph glyph-name="v" unicode="v" horiz-adv-x="1046" 
d="M788 950h228l-365 -950h-254l-366 950h229l264 -717z" />
    <glyph glyph-name="w" unicode="w" horiz-adv-x="1388" 
d="M352 0l-321 950h229l232 -708l106 305l-147 403h184l59 -172l60 172h184l-150 -403l109 -307l231 710h230l-320 -950h-237l-107 289l-106 -289h-236z" />
    <glyph glyph-name="x" unicode="x" horiz-adv-x="997" 
d="M967 0h-256l-211 295l-213 -295h-256l340 475l-340 475h256l213 -297l211 297h256l-340 -475z" />
    <glyph glyph-name="y" unicode="y" horiz-adv-x="1073" 
d="M819 950h223l-518 -1462h-223l180 512h-90l-360 950h221l287 -743h22z" />
    <glyph glyph-name="z" unicode="z" horiz-adv-x="940" 
d="M858 209v-209h-776v166l479 588h-455v196h746v-168l-467 -573h473z" />
    <glyph glyph-name="braceleft" unicode="{" horiz-adv-x="501" 
d="M186 940v557q0 103 54 163t137 60q33 0 63 -8l-8 -119q-4 2 -24 2q-20 -1 -40 -27q-22 -26 -22 -71v-557q0 -84 -29 -131t-86 -78q57 -33 86 -80t29 -129v-557q0 -45 22 -71t41 -27q19 0 23 2l8 -119q-31 -8 -63 -8q-82 0 -136 59t-55 164v557q0 135 -94 152v114
q94 16 94 152z" />
    <glyph glyph-name="bar" unicode="|" horiz-adv-x="548" 
d="M195 -100v1634h159v-1634h-159z" />
    <glyph glyph-name="braceright" unicode="}" horiz-adv-x="501" 
d="M315 -35q0 -103 -54 -163t-136 -60q-33 0 -64 8l9 119q4 -2 24 -2t40 27q22 27 22 71v557q0 82 28 129q29 47 86 80q-57 31 -86 78t-28 131v557q0 45 -22 72t-41 27t-23 -3l-9 119q31 8 64 8q82 0 136 -59t54 -164v-557q1 -136 95 -152v-114q-94 -16 -95 -152v-557z" />
    <glyph glyph-name="asciitilde" unicode="~" horiz-adv-x="1046" 
d="M102 444q0 120 72 186t160 66t198 -49t148 -49q36 0 60 24t24 64h180q0 -112 -63 -184t-160 -72q-63 0 -191 50t-186 50q-74 0 -74 -86h-168z" />
    <glyph glyph-name="exclamdown" unicode="&#xa1;" horiz-adv-x="663" 
d="M340 834q0 -62 -42 -106t-103 -44t-106 44q-44 44 -44 106t44 103q43 42 105 42t104 -42t42 -103zM309 549v-1061h-233v1061h233z" />
    <glyph glyph-name="cent" unicode="&#xa2;" horiz-adv-x="1030" 
d="M324 742q0 -86 47 -160t125 -107v533q-78 -33 -125 -106t-47 -160zM496 109v145q-168 37 -281 173t-113 314q0 177 113 313t281 173v155h159v-147q182 -20 273 -141l-152 -154q-53 61 -121 80v-559q70 20 123 84l170 -133q-123 -139 -293 -164v-139h-159z" />
    <glyph glyph-name="sterling" unicode="&#xa3;" horiz-adv-x="1136" 
d="M1075 301v-301h-848l-98 96q67 242 68 482h-95v167h95v127q0 258 144 410t366 152q174 0 335 -88l-88 -195q-116 66 -246 66q-130 -1 -213 -87t-83 -268v-117h264v-167h-264q0 -123 -21 -267l-18 -121h483v111h219z" />
    <glyph glyph-name="currency" unicode="&#xa4;" horiz-adv-x="1198" 
d="M352 563q0 -100 74 -173t173 -73t172 74t73 173t-73 172t-172 73t-173 -73t-74 -173zM168 562q0 132 76 241l-142 135l123 123l135 -143q109 76 237 76t241 -76l135 143l123 -123l-144 -135q78 -107 78 -237t-76 -242l142 -134l-123 -122l-133 139q-113 -76 -241 -76
t-241 76l-133 -139l-123 122l142 134q-76 106 -76 238z" />
    <glyph glyph-name="yen" unicode="&#xa5;" horiz-adv-x="1341" 
d="M223 563v170h273l-476 729h275l377 -612l375 612h274l-475 -729h266v-170h-324v-74h324v-163h-324v-326h-235v326h-330v163h330v74h-330z" />
    <glyph glyph-name="brokenbar" unicode="&#xa6;" horiz-adv-x="548" 
d="M354 1536v-627l-129 -129h-30v756h159zM354 653v-755h-159v626l129 129h30z" />
    <glyph glyph-name="section" unicode="&#xa7;" horiz-adv-x="1163" 
d="M342 684q0 -51 38 -91t84 -65q46 -26 130 -64t131 -67q41 13 69 55t28 94t-40 91q-39 39 -85 63t-129 65q-83 40 -130 66q-40 -10 -68 -53t-28 -94zM566 1536q144 0 263 -85t144 -263l-221 -25q-10 76 -64 114t-118 38t-108 -34q-44 -33 -44 -105t64 -129t156 -97
q91 -40 182 -84t156 -112q64 -68 64 -151t-34 -145t-65 -89q-32 -27 -83 -64q106 -96 106 -256t-109 -257q-111 -97 -267 -97t-272 96t-115 254q0 84 55 150l203 -58q-31 -35 -31 -93t49 -98q49 -38 111 -38h4q66 2 110 39t43 109q0 72 -64 128q-65 58 -156 98t-182 83
t-156 111t-64 161q-1 182 192 278q-117 87 -117 257t112 267t256 97z" />
    <glyph glyph-name="dieresis" unicode="&#xa8;" horiz-adv-x="1054" 
d="M160 1266q0 61 42 105t103 44t105 -44t45 -105q0 -60 -44 -104q-43 -44 -105 -44t-104 44t-42 104zM600 1266q0 61 42 105t103 44t105 -44t45 -105q0 -60 -44 -104q-43 -44 -105 -44t-104 44t-42 104z" />
    <glyph glyph-name="copyright" unicode="&#xa9;" horiz-adv-x="1646" 
d="M847 496q89 0 152 73l140 -110q-123 -137 -287 -137t-286 120t-122 288q0 169 120 289t288 120q82 0 157 -32t113 -87l-125 -127q-55 72 -147 72t-158 -70t-66 -164t66 -165q66 -70 155 -70zM252 731q0 -235 167 -403t405 -168t404 168q167 168 167 404t-167 403
q-167 168 -405 168q-239 0 -405 -168t-166 -404zM92 731q0 303 214 517t517 214t517 -214t214 -517t-214 -517t-517 -214t-517 214t-214 517z" />
    <glyph glyph-name="ordfeminine" unicode="&#xaa;" horiz-adv-x="888" 
d="M408 866q141 0 141 160h-158q-49 0 -78 -24t-29 -56t32 -56q31 -24 92 -24zM739 1247v-348h68v-188h-158l-55 55q-68 -72 -205 -72t-222 69t-85 172t66 174q67 71 249 73h146v35q0 39 -33 61t-82 22q-88 0 -119 -71l-176 96q68 160 297 160q127 -1 218 -61t91 -177z" />
    <glyph glyph-name="guillemotleft" unicode="&#xab;" horiz-adv-x="1097" 
d="M578 92h-154l-363 424l363 424h154v-68l-246 -356l246 -356v-68zM1016 92h-154l-362 424l362 424h154v-68l-246 -356l246 -356v-68z" />
    <glyph glyph-name="logicalnot" unicode="&#xac;" horiz-adv-x="1347" 
d="M82 698v197h1163v-518h-196v321h-967z" />
    <glyph glyph-name="registered" unicode="&#xae;" horiz-adv-x="1646" 
d="M252 731q0 -235 167 -403t405 -168t404 168q167 168 167 404t-167 403q-167 168 -405 168q-239 0 -405 -168t-166 -404zM92 731q0 303 214 517t517 214t517 -214t214 -517t-214 -517t-517 -214t-517 214t-214 517zM877 977h-187v-225h187q55 0 93 32t38 80q0 49 -38 81
t-93 32zM1167 858q0 -158 -129 -227l129 -269v-51h-151l-129 283h-197v-283h-160v819h324q162 0 238 -79q75 -80 75 -193z" />
    <glyph glyph-name="macron" unicode="&#xaf;" horiz-adv-x="1452" 
d="M440 1630v164h576v-164h-576z" />
    <glyph glyph-name="degree" unicode="&#xb0;" horiz-adv-x="679" 
d="M215 1164q0 -50 37 -87t87 -37t87 37t37 87t-37 87t-87 37t-87 -37t-37 -87zM41 1164q0 122 89 210t210 88t210 -88t89 -210t-89 -211t-210 -89t-210 89t-89 211z" />
    <glyph glyph-name="plusminus" unicode="&#xb1;" horiz-adv-x="1011" 
d="M61 0v197h889v-197h-889zM61 662v196h347v338h196v-338h346v-196h-346v-340h-196v340h-347z" />
    <glyph glyph-name="twosuperior" unicode="&#xb2;" horiz-adv-x="608" 
d="M290 1425q118 -1 188 -71t71 -164q0 -94 -92 -199l-166 -188h260v-150h-494v121l262 287q72 78 72 118q1 41 -25 69t-75 28t-72 -25t-23 -67t29 -70l-102 -104q-82 62 -82 168t65 177q66 70 184 70z" />
    <glyph glyph-name="threesuperior" unicode="&#xb3;" horiz-adv-x="628" 
d="M308 799q46 1 79 31t33 69t-33 68t-82 29t-78 -9l-45 105l168 184h-239v143h432v-129l-168 -178q84 -4 147 -68q64 -64 64 -170q0 -108 -80 -170t-209 -63q-79 0 -145 36t-93 87l107 102q18 -31 57 -49t85 -18z" />
    <glyph glyph-name="acute" unicode="&#xb4;" horiz-adv-x="1075" 
d="M612 1493q6 0 42 -11t56 -44t21 -68q0 -80 -59 -108l-328 -168l-74 73q23 25 244 279q37 47 98 47z" />
    <glyph glyph-name="mu" unicode="&#xb5;" horiz-adv-x="1150" 
d="M143 -512v1462h224v-536q0 -109 53 -167q53 -59 135 -59t135 58t53 168v536h222v-737h84v-213h-166l-84 84q-94 -106 -244 -107q-100 0 -188 60v-549h-224z" />
    <glyph glyph-name="paragraph" unicode="&#xb6;" horiz-adv-x="1089" 
d="M733 -254v1716h275v-141h-125v-1575h-150zM61 1067q0 162 117 279t279 116h149v-1716h-149v928q-164 0 -280 116t-116 277z" />
    <glyph glyph-name="middot" unicode="&#xb7;" horiz-adv-x="468" 
d="M234 356q-68 0 -114 47t-46 114t47 115t113 48t114 -48q47 -48 47 -115t-47 -114t-114 -47z" />
    <glyph glyph-name="cedilla" unicode="&#xb8;" horiz-adv-x="620" 
d="M530 -298q0 -94 -74 -162q-74 -66 -176 -66q-100 0 -168 45t-85 131q1 0 69 24t76 31q18 -66 86 -65q34 0 58 18t24 49q0 78 -90 78l-29 -2l-61 96l22 191h203l-43 -150q80 -8 134 -66t54 -152z" />
    <glyph glyph-name="onesuperior" unicode="&#xb9;" horiz-adv-x="540" 
d="M113 1276v143h252v-622h81v-144h-352v144h94v479h-75z" />
    <glyph glyph-name="ordmasculine" unicode="&#xba;" horiz-adv-x="956" 
d="M479 870q88 0 149 66q60 66 60 155t-60 153t-148 65q-88 0 -149 -65q-61 -64 -61 -154t60 -155t149 -65zM82 1090q0 166 116 280t280 115q163 0 280 -115q116 -114 116 -280t-116 -281t-280 -115t-280 115t-116 281z" />
    <glyph glyph-name="guillemotright" unicode="&#xbb;" horiz-adv-x="1097" 
d="M520 940h154l362 -424l-362 -424h-154v68l246 356l-246 356v68zM82 940h154l362 -424l-362 -424h-154v68l246 356l-246 356v68z" />
    <glyph glyph-name="onequarter" unicode="&#xbc;" horiz-adv-x="1429" 
d="M113 1276v143h252v-622h81v-144h-352v144h94v479h-75zM92 0v20l1090 1442h178v-22l-1090 -1440h-178zM1073 238v337l-235 -337h235zM1073 0v115h-432v75l412 576h192v-528h70v-123h-70v-115h-172z" />
    <glyph glyph-name="onehalf" unicode="&#xbd;" horiz-adv-x="1431" 
d="M113 1276v143h252v-622h81v-144h-352v144h94v479h-75zM905 525q-1 107 65 177t184 70t188 -71t71 -165q0 -94 -92 -198l-166 -188h260v-150h-493v121l262 287q72 78 72 118t-26 68q-26 29 -75 29t-72 -25q-23 -24 -23 -66t30 -71l-103 -105q-82 63 -82 169zM92 0v20
l1090 1442h178v-22l-1090 -1440h-178z" />
    <glyph glyph-name="threequarters" unicode="&#xbe;" horiz-adv-x="1437" 
d="M302 799q46 1 79 31t33 69t-33 68t-82 29t-78 -9l-45 105l168 184h-240v143h433v-129l-168 -178q84 -4 147 -68q64 -64 64 -170q0 -108 -80 -170t-209 -63q-80 0 -146 36t-92 87l107 102q18 -31 57 -49t85 -18zM127 0v20l1090 1442h178v-22l-1090 -1440h-178zM1108 238
v337l-236 -337h236zM1108 0v115h-432v75l411 576h193v-528h70v-123h-70v-115h-172z" />
    <glyph glyph-name="questiondown" unicode="&#xbf;" horiz-adv-x="993" 
d="M575 852q0 -61 -41 -106q-42 -44 -104 -44t-105 44q-44 44 -44 106t44 103q44 42 105 42t103 -42t42 -103zM375 -524q-172 0 -285 106t-113 258t119 298q48 60 98 120q120 147 119 309h234q0 -111 -34 -206t-82 -159t-96 -121q-116 -135 -116 -231q0 -66 42 -112t115 -47
q73 0 118 48t45 111t-58 134l156 153q67 -47 103 -130t36 -157q0 -162 -114 -268t-287 -106z" />
    <glyph glyph-name="Agrave" unicode="&#xc0;" 
d="M766 1221l-258 -674h516zM911 1462l580 -1462h-256l-125 326h-688l-125 -326h-256l580 1462h290zM537 1828q0 81 77 109q35 10 43 11q61 0 99 -47q100 -119 241 -279l-71 -74q-297 154 -328 168q-61 31 -61 112z" />
    <glyph glyph-name="Aacute" unicode="&#xc1;" 
d="M877 1948q8 0 43 -12t55 -44q20 -33 20 -67q0 -80 -59 -109l-328 -168l-73 74q23 25 243 279q37 47 99 47zM766 1221l-258 -674h516zM911 1462l580 -1462h-256l-125 326h-688l-125 -326h-256l580 1462h290z" />
    <glyph glyph-name="Acircumflex" unicode="&#xc2;" 
d="M575 1550l-96 60l197 305h180l197 -305l-97 -60l-190 222zM766 1221l-258 -674h516zM911 1462l580 -1462h-256l-125 326h-688l-125 -326h-256l580 1462h290z" />
    <glyph glyph-name="Atilde" unicode="&#xc3;" 
d="M592 1722q-42 0 -69 -17q-28 -17 -36 -36l-6 -18l-104 71q5 20 28 57q74 121 218 124q59 0 164 -44t147 -44t68 17q28 17 38 36l13 16l108 -61q-6 -22 -28 -61q-76 -128 -209 -130q-68 0 -179 45t-153 45zM766 1221l-258 -674h516zM911 1462l580 -1462h-256l-125 326
h-688l-125 -326h-256l580 1462h290z" />
    <glyph glyph-name="Adieresis" unicode="&#xc4;" 
d="M399 1749q0 61 42 105q41 44 103 44t106 -44t44 -105t-44 -104t-105 -43t-104 43q-42 43 -42 104zM840 1749q0 61 42 105t103 44t105 -44t45 -105q0 -61 -44 -104q-43 -43 -105 -43t-104 43t-42 104zM766 1221l-258 -674h516zM911 1462l580 -1462h-256l-125 326h-688
l-125 -326h-256l580 1462h290z" />
    <glyph glyph-name="Aring" unicode="&#xc5;" 
d="M657 1570q0 -44 32 -76t77 -32t77 32q31 32 31 76t-31 76q-32 32 -77 32t-77 -32t-32 -76zM766 1221l-260 -674h518zM530 1569q0 96 70 166q70 69 166 69t166 -70t70 -163q0 -94 -68 -166l557 -1405h-256l-125 326h-688l-125 -326h-256l557 1405q-68 68 -68 164z" />
    <glyph glyph-name="AE" unicode="&#xc6;" horiz-adv-x="1888" 
d="M723 1210l-225 -618h450zM1776 1462v-221h-828l137 -373h646v-221h-564l156 -424h453v-223h-611l-135 369h-614l-135 -369h-240l537 1462h1198z" />
    <glyph glyph-name="Ccedilla" unicode="&#xc7;" horiz-adv-x="1449" 
d="M836 1493q302 0 518 -211l-176 -152q-139 136 -344 136q-204 0 -348 -158t-144 -375t143 -377t359 -160t356 156l178 -145q-182 -199 -454 -230l-17 -57q80 -8 134 -66q55 -58 55 -152t-75 -162q-75 -66 -175 -66t-168 45t-86 131q2 0 70 24t75 31q18 -66 86 -65
q33 0 58 18q24 18 24 49q0 78 -90 78l-29 -2l-61 96l10 101q-270 36 -456 248q-187 212 -187 518t221 527q221 220 523 220z" />
    <glyph glyph-name="Egrave" unicode="&#xc8;" horiz-adv-x="1349" 
d="M905 1622l-71 -74q-297 154 -328 168q-62 31 -62 112t78 109q37 10 43 11q61 0 99 -47q100 -119 241 -279zM184 0v1462h1053v-221h-823v-373h778v-221h-778v-424h823v-223h-1053z" />
    <glyph glyph-name="Eacute" unicode="&#xc9;" horiz-adv-x="1349" 
d="M184 0v1462h1053v-221h-823v-373h778v-221h-778v-424h823v-223h-1053zM786 1948q8 0 43 -12t55 -44q20 -33 21 -67q0 -80 -59 -109l-328 -168l-74 74q23 25 244 279q37 47 98 47z" />
    <glyph glyph-name="Ecircumflex" unicode="&#xca;" horiz-adv-x="1349" 
d="M485 1550l-96 60l197 305h180l197 -305l-97 -60l-190 222zM184 0v1462h1053v-221h-823v-373h778v-221h-778v-424h823v-223h-1053z" />
    <glyph glyph-name="Edieresis" unicode="&#xcb;" horiz-adv-x="1349" 
d="M352 1749q0 61 42 105t104 44t105 -44q44 -44 44 -105t-44 -104t-105 -43t-104 43q-42 43 -42 104zM793 1749q0 61 42 105t103 44t105 -44t44 -105t-44 -104t-105 -43t-103 43t-42 104zM184 0v1462h1053v-221h-823v-373h778v-221h-778v-424h823v-223h-1053z" />
    <glyph glyph-name="Igrave" unicode="&#xcc;" horiz-adv-x="645" 
d="M551 1622l-72 -74q-297 154 -327 168q-62 31 -62 112t78 109q37 10 43 11q61 0 98 -47q101 -119 242 -279zM205 0v1462h235v-1462h-235z" />
    <glyph glyph-name="Iacute" unicode="&#xcd;" horiz-adv-x="645" 
d="M438 1948q8 0 43 -12t55 -44q20 -33 21 -67q0 -80 -59 -109l-328 -168l-74 74q23 25 244 279q37 47 98 47zM205 0v1462h235v-1462h-235z" />
    <glyph glyph-name="Icircumflex" unicode="&#xce;" horiz-adv-x="645" 
d="M133 1550l-96 60l196 305h181l196 -305l-96 -60l-190 222zM205 0v1462h235v-1462h-235z" />
    <glyph glyph-name="Idieresis" unicode="&#xcf;" horiz-adv-x="645" 
d="M-41 1749q0 61 42 105t103 44q62 0 106 -44t44 -105t-44 -104t-106 -43t-103 43q-42 43 -42 104zM399 1749q0 61 42 105q41 44 103 44t106 -44t44 -105t-44 -104t-105 -43t-104 43q-42 43 -42 104zM205 0v1462h235v-1462h-235z" />
    <glyph glyph-name="Eth" unicode="&#xd0;" horiz-adv-x="1443" 
d="M694 664h-278v-441h233q185 0 319 107q69 55 108 157q40 101 40 243q0 279 -148 404q-132 107 -319 107h-233v-395h278v-182zM55 664v182h131v616h478q186 0 340 -80t250 -248t98 -403q0 -347 -199 -539t-489 -192h-478v664h-131z" />
    <glyph glyph-name="Ntilde" unicode="&#xd1;" horiz-adv-x="1630" 
d="M184 0v1462h281l747 -1140v1140h234v-1462h-303l-723 1104v-1104h-236zM630 1722q-42 0 -70 -17t-36 -36l-6 -18l-104 71q5 19 27 57q23 37 48 61t71 43t102 19t162 -43q106 -44 146 -44q42 0 70 17t37 36l13 16l108 -61q-6 -22 -28 -61q-76 -128 -209 -130
q-68 0 -179 45q-110 45 -152 45z" />
    <glyph glyph-name="Ograve" unicode="&#xd2;" horiz-adv-x="1712" 
d="M625 1828q0 81 77 109q35 10 43 11q61 0 99 -47q100 -119 241 -279l-71 -74q-297 154 -328 168q-61 31 -61 112zM856 197q221 0 368 157q146 158 146 377t-146 377t-368 158t-368 -158t-146 -377t146 -377q147 -157 368 -157zM856 1493q316 0 540 -219t224 -543
t-224 -542t-540 -218t-540 218t-224 542t224 543q225 219 540 219z" />
    <glyph glyph-name="Oacute" unicode="&#xd3;" horiz-adv-x="1712" 
d="M967 1948q8 0 43 -12t55 -44q20 -33 20 -67q0 -80 -59 -109l-328 -168l-73 74q23 25 243 279q37 47 99 47zM856 197q221 0 368 157q146 158 146 377t-146 377t-368 158t-368 -158t-146 -377t146 -377q147 -157 368 -157zM856 1493q316 0 540 -219t224 -543t-224 -542
t-540 -218t-540 218t-224 542t224 543q225 219 540 219z" />
    <glyph glyph-name="Ocircumflex" unicode="&#xd4;" horiz-adv-x="1712" 
d="M666 1550l-97 60l197 305h180l197 -305l-96 -60l-191 222zM856 197q221 0 368 157q146 158 146 377t-146 377t-368 158t-368 -158t-146 -377t146 -377q147 -157 368 -157zM856 1493q316 0 540 -219t224 -543t-224 -542t-540 -218t-540 218t-224 542t224 543
q225 219 540 219z" />
    <glyph glyph-name="Otilde" unicode="&#xd5;" horiz-adv-x="1712" 
d="M680 1722q-41 0 -69 -17t-33 -36l-9 -18l-104 71q5 20 28 57q74 121 218 124q59 0 165 -44t146 -44q41 0 69 17t39 36l11 16l108 -61q-5 -21 -31 -66q-70 -123 -214 -125q-60 0 -172 45t-152 45zM856 197q221 0 368 157q146 158 146 377t-146 377t-368 158t-368 -158
t-146 -377t146 -377q147 -157 368 -157zM856 1493q316 0 540 -219t224 -543t-224 -542t-540 -218t-540 218t-224 542t224 543q225 219 540 219z" />
    <glyph glyph-name="Odieresis" unicode="&#xd6;" horiz-adv-x="1712" 
d="M487 1749q0 61 42 105q41 44 103 44t106 -44t44 -105t-44 -104t-105 -43t-104 43q-42 43 -42 104zM928 1749q0 61 42 105t103 44t105 -44t45 -105q0 -61 -44 -104q-43 -43 -105 -43t-104 43t-42 104zM856 197q221 0 368 157q146 158 146 377t-146 377t-368 158t-368 -158
t-146 -377t146 -377q147 -157 368 -157zM856 1493q316 0 540 -219t224 -543t-224 -542t-540 -218t-540 218t-224 542t224 543q225 219 540 219z" />
    <glyph glyph-name="multiply" unicode="&#xd7;" horiz-adv-x="970" 
d="M733 1053l135 -133l-250 -250l250 -250l-133 -133l-250 248l-249 -248l-134 133l248 250l-248 250l134 133l249 -250z" />
    <glyph glyph-name="Oslash" unicode="&#xd8;" horiz-adv-x="1712" 
d="M856 197q221 0 368 157q146 158 146 366t-121 357l-678 -794q125 -86 285 -86zM342 739q0 -211 127 -364l682 796q-129 94 -295 95q-222 0 -368 -158t-146 -369zM856 1493q248 0 447 -141l94 110h182l-172 -200q213 -219 213 -537t-224 -536t-540 -218q-244 0 -436 133
l-88 -104h-182l163 193q-221 221 -221 541t224 540q225 219 540 219z" />
    <glyph glyph-name="Ugrave" unicode="&#xd9;" horiz-adv-x="1509" 
d="M985 1622l-72 -74q-297 154 -327 168q-62 31 -62 112t78 109q37 10 43 11q61 0 98 -47q101 -119 242 -279zM1100 594v868h225v-872q0 -305 -156 -462q-155 -157 -413 -157t-415 157t-157 462v872h228v-868q0 -201 98 -299t246 -98t246 98t98 299z" />
    <glyph glyph-name="Uacute" unicode="&#xda;" horiz-adv-x="1509" 
d="M868 1948q8 0 43 -12t55 -44q20 -33 21 -67q0 -80 -59 -109l-328 -168l-74 74q23 25 244 279q37 47 98 47zM1100 594v868h225v-872q0 -305 -156 -462q-155 -157 -413 -157t-415 157t-157 462v872h228v-868q0 -201 98 -299t246 -98t246 98t98 299z" />
    <glyph glyph-name="Ucircumflex" unicode="&#xdb;" horiz-adv-x="1509" 
d="M565 1550l-96 60l197 305h180l196 -305l-96 -60l-190 222zM1100 594v868h225v-872q0 -305 -156 -462q-155 -157 -413 -157t-415 157t-157 462v872h228v-868q0 -201 98 -299t246 -98t246 98t98 299z" />
    <glyph glyph-name="Udieresis" unicode="&#xdc;" horiz-adv-x="1509" 
d="M389 1749q0 61 42 105q41 44 103 44t106 -44t44 -105t-44 -104t-105 -43t-104 43q-42 43 -42 104zM829 1749q0 61 42 105q41 44 103 44t106 -44t44 -105t-44 -104t-105 -43t-104 43q-42 43 -42 104zM1100 594v868h225v-872q0 -305 -156 -462q-155 -157 -413 -157
t-415 157t-157 462v872h228v-868q0 -201 98 -299t246 -98t246 98t98 299z" />
    <glyph glyph-name="Yacute" unicode="&#xdd;" horiz-adv-x="1341" 
d="M553 0v610l-533 852h275l377 -612l375 612h274l-533 -852v-610h-235zM782 1948q8 0 43 -12t55 -44q20 -33 21 -67q0 -80 -59 -109l-328 -168l-74 74q23 25 244 279q37 47 98 47z" />
    <glyph glyph-name="Thorn" unicode="&#xde;" horiz-adv-x="1286" 
d="M696 928h-280v-408h280q123 0 200 49t77 143t-68 156q-68 60 -209 60zM184 0v1462h232v-313h295q125 0 222 -39q97 -40 151 -104q110 -131 110 -299t-126 -289t-357 -121h-295v-297h-232z" />
    <glyph glyph-name="germandbls" unicode="&#xdf;" horiz-adv-x="1181" 
d="M408 1133v-183h628v-180l-217 -227q125 -25 208 -91t83 -193q0 -126 -112 -204t-257 -78q-94 0 -188 37l51 179q78 -17 136 -17t106 27q49 27 49 73q1 46 -63 81q-64 36 -187 36l-51 172l176 189h-364v-754h-220v754h-110v196h110v183q0 195 122 305t272 110t258 -74
q109 -74 147 -206l-176 -86q-23 76 -81 116t-131 41q-73 0 -131 -54t-58 -152z" />
    <glyph glyph-name="agrave" unicode="&#xe0;" horiz-adv-x="1103" 
d="M301 1374q0 80 78 109q37 10 43 10q61 0 98 -47q101 -119 242 -279l-72 -73q-297 154 -328 168q-61 32 -61 112zM500 162q108 0 162 78q53 78 53 178h-246q-94 0 -132 -37t-38 -88t47 -91q46 -40 154 -40zM920 674v-461h81v-213h-163l-88 88q-94 -111 -268 -111
q-174 -1 -282 87t-108 233q0 214 222 274q75 20 173 21h218v55q1 61 -57 98t-132 37q-129 0 -176 -94l-184 84q84 201 372 201q162 0 277 -76t115 -223z" />
    <glyph glyph-name="aacute" unicode="&#xe1;" horiz-adv-x="1103" 
d="M645 1493q6 0 42 -11t56 -44t21 -68q0 -80 -59 -108l-328 -168l-74 73q23 25 244 279q37 47 98 47zM500 162q108 0 162 78q53 78 53 178h-246q-94 0 -132 -37t-38 -88t47 -91q46 -40 154 -40zM920 674v-461h81v-213h-163l-88 88q-94 -111 -268 -111q-174 -1 -282 87
t-108 233q0 214 222 274q75 20 173 21h218v55q1 61 -57 98t-132 37q-129 0 -176 -94l-184 84q84 201 372 201q162 0 277 -76t115 -223z" />
    <glyph glyph-name="acircumflex" unicode="&#xe2;" horiz-adv-x="1103" 
d="M342 1098l-96 59l196 305h181l196 -305l-96 -59l-191 221zM500 162q108 0 162 78q53 78 53 178h-246q-94 0 -132 -37t-38 -88t47 -91q46 -40 154 -40zM920 674v-461h81v-213h-163l-88 88q-94 -111 -268 -111q-174 -1 -282 87t-108 233q0 214 222 274q75 20 173 21h218v55
q1 61 -57 98t-132 37q-129 0 -176 -94l-184 84q84 201 372 201q162 0 277 -76t115 -223z" />
    <glyph glyph-name="atilde" unicode="&#xe3;" horiz-adv-x="1103" 
d="M359 1210q-41 0 -69 -17t-36 -36l-6 -18l-105 71q4 16 27 55q24 39 49 63t71 43t102 19t162 -43q106 -44 146 -44q42 0 70 17t37 36l12 16l109 -61q-6 -22 -32 -66q-70 -123 -214 -125q-60 0 -170 45t-153 45zM500 162q108 0 162 78q53 78 53 178h-246q-94 0 -132 -37
t-38 -88t47 -91q46 -40 154 -40zM920 674v-461h81v-213h-163l-88 88q-94 -111 -268 -111q-174 -1 -282 87t-108 233q0 214 222 274q75 20 173 21h218v55q1 61 -57 98t-132 37q-129 0 -176 -94l-184 84q84 201 372 201q162 0 277 -76t115 -223z" />
    <glyph glyph-name="adieresis" unicode="&#xe4;" horiz-adv-x="1103" 
d="M172 1266q0 61 42 105t103 44t105 -44t45 -105q0 -60 -44 -104q-43 -44 -105 -44t-104 44t-42 104zM612 1266q0 61 42 105t104 44t105 -44q44 -44 44 -105q0 -60 -44 -104t-105 -44t-104 43q-42 44 -42 105zM500 162q108 0 162 78q53 78 53 178h-246q-94 0 -132 -37
t-38 -88t47 -91q46 -40 154 -40zM920 674v-461h81v-213h-163l-88 88q-94 -111 -268 -111q-174 -1 -282 87t-108 233q0 214 222 274q75 20 173 21h218v55q1 61 -57 98t-132 37q-129 0 -176 -94l-184 84q84 201 372 201q162 0 277 -76t115 -223z" />
    <glyph glyph-name="aring" unicode="&#xe5;" horiz-adv-x="1103" 
d="M420 1305q0 -43 32 -74t74 -31t75 31q32 31 32 74t-32 75t-75 31q-42 1 -74 -31t-32 -75zM297 1305q0 93 69 161q70 68 162 68t161 -68t69 -162t-69 -162q-69 -69 -162 -69t-161 69t-69 163zM500 162q108 0 162 78q53 78 53 178h-246q-94 0 -132 -37t-38 -88t47 -91
q46 -40 154 -40zM920 674v-461h81v-213h-163l-88 88q-94 -111 -268 -111q-174 -1 -282 87t-108 233q0 214 222 274q75 20 173 21h218v55q1 61 -57 98t-132 37q-129 0 -176 -94l-184 84q84 201 372 201q162 0 277 -76t115 -223z" />
    <glyph glyph-name="ae" unicode="&#xe6;" horiz-adv-x="1642" 
d="M1136 778q-87 0 -153 -52t-82 -134h463q-10 80 -76 133t-152 53zM500 162q108 0 162 78q53 78 53 178h-246q-94 0 -132 -37t-38 -88t47 -91q46 -40 154 -40zM1120 182q152 0 236 133l180 -98q-62 -104 -164 -172t-212 -68t-204 42q-96 42 -155 102q-115 -143 -305 -143
t-296 86q-108 88 -108 233q0 214 222 274q75 20 173 21h218v55q1 61 -57 98t-132 37q-129 0 -176 -94l-184 84q84 201 372 201q207 0 314 -109q128 109 308 109t304 -140t127 -335l-80 -80h-610q8 -104 79 -170q70 -66 150 -66z" />
    <glyph glyph-name="ccedilla" unicode="&#xe7;" horiz-adv-x="968" 
d="M72 475q0 207 146 352t349 146q99 0 191 -39t139 -107l-152 -153q-71 88 -183 88t-190 -85t-79 -201q0 -116 79 -202t187 -86t189 91l170 -134q-121 -137 -287 -161l-17 -64q80 -8 134 -66t55 -152q0 -94 -75 -162q-75 -66 -175 -66t-168 45t-86 131q2 0 70 24t75 31
q18 -66 86 -65q33 0 58 18q24 18 24 49q0 78 -90 78l-28 -2l-62 96l12 115q-160 43 -266 176t-106 305z" />
    <glyph glyph-name="egrave" unicode="&#xe8;" horiz-adv-x="1044" 
d="M424 1493q61 0 98 -47q101 -119 242 -279l-72 -73q-297 154 -327 168q-61 32 -61 112t77 109q35 10 43 10zM538 778q-87 0 -153 -52t-82 -134h461q-10 80 -74 133t-152 53zM522 182q152 0 236 133l180 -98q-62 -104 -164 -172t-235 -68q-201 1 -334 147t-133 350t133 351
t330 147t319 -139q122 -140 129 -335l-82 -80h-608q8 -104 79 -170q70 -66 150 -66z" />
    <glyph glyph-name="eacute" unicode="&#xe9;" horiz-adv-x="1044" 
d="M631 1493q8 0 43 -11t55 -44t21 -68q0 -80 -60 -108l-328 -168l-73 73q23 25 243 279q37 47 99 47zM538 778q-87 0 -153 -52t-82 -134h461q-10 80 -74 133t-152 53zM522 182q152 0 236 133l180 -98q-62 -104 -164 -172t-235 -68q-201 1 -334 147t-133 350t133 351
t330 147t319 -139q122 -140 129 -335l-82 -80h-608q8 -104 79 -170q70 -66 150 -66z" />
    <glyph glyph-name="ecircumflex" unicode="&#xea;" horiz-adv-x="1044" 
d="M319 1098l-96 59l197 305h180l197 -305l-97 -59l-190 221zM538 778q-87 0 -153 -52t-82 -134h461q-10 80 -74 133t-152 53zM522 182q152 0 236 133l180 -98q-62 -104 -164 -172t-235 -68q-201 1 -334 147t-133 350t133 351t330 147t319 -139q122 -140 129 -335l-82 -80
h-608q8 -104 79 -170q70 -66 150 -66z" />
    <glyph glyph-name="edieresis" unicode="&#xeb;" horiz-adv-x="1044" 
d="M178 1266q0 61 42 105t104 44t105 -44q44 -44 44 -105q0 -60 -44 -104t-105 -44t-104 43q-42 44 -42 105zM618 1266q0 61 42 105t104 44t105 -44q44 -44 44 -105q0 -60 -44 -104t-105 -44t-104 43q-42 44 -42 105zM538 778q-87 0 -153 -52t-82 -134h461q-10 80 -74 133
t-152 53zM522 182q152 0 236 133l180 -98q-62 -104 -164 -172t-235 -68q-201 1 -334 147t-133 350t133 351t330 147t319 -139q122 -140 129 -335l-82 -80h-608q8 -104 79 -170q70 -66 150 -66z" />
    <glyph glyph-name="igrave" unicode="&#xec;" horiz-adv-x="546" 
d="M403 0h-219v754h-84v196h226l77 -78v-872zM129 1493q61 0 98 -47q101 -119 242 -279l-72 -73q-297 154 -327 168q-62 32 -62 112t78 109q37 10 43 10z" />
    <glyph glyph-name="iacute" unicode="&#xed;" horiz-adv-x="546" 
d="M403 0h-219v754h-84v196h226l77 -78v-872zM350 1493q6 0 42 -11t56 -44t21 -68q0 -80 -59 -108l-328 -168l-74 73q23 25 244 279q37 47 98 47z" />
    <glyph glyph-name="icircumflex" unicode="&#xee;" horiz-adv-x="546" 
d="M403 0h-219v754h-84v196h226l77 -78v-872zM49 1098l-96 59l197 305h180l196 -305l-96 -59l-190 221z" />
    <glyph glyph-name="idieresis" unicode="&#xef;" horiz-adv-x="546" 
d="M403 0h-219v754h-84v196h226l77 -78v-872zM-84 1266q0 61 42 105t103 44t105 -44t45 -105q0 -60 -44 -104q-43 -44 -105 -44t-104 44t-42 104zM356 1266q0 61 42 105t104 44t105 -44q44 -44 44 -105q0 -60 -44 -104t-105 -44t-104 43q-42 44 -42 105z" />
    <glyph glyph-name="eth" unicode="&#xf0;" horiz-adv-x="1136" 
d="M295 475q1 -117 79 -202t194 -85t195 85t79 202t-78 201t-196 84t-196 -84t-77 -201zM1065 475q0 -209 -146 -353q-147 -144 -351 -144t-350 144t-146 353t147 352t356 144l-83 135l-175 -111l-81 135l174 109l-156 254h274l80 -131l170 104l82 -133l-170 -104l275 -445
q100 -164 100 -309z" />
    <glyph glyph-name="ntilde" unicode="&#xf1;" horiz-adv-x="1134" 
d="M380 1210q-40 0 -68 -17t-33 -36l-9 -18l-104 71q5 20 28 57q74 121 218 124q58 0 164 -44t147 -44t69 17t39 36l11 16l108 -61q-5 -21 -28 -60q-74 -128 -209 -131q-70 0 -181 45q-112 45 -152 45zM991 0h-223v573q0 89 -47 137t-127 48t-134 -44t-54 -110v-604h-220
v754h-84v196h177l88 -88q133 106 280 106t245 -98t99 -297v-573z" />
    <glyph glyph-name="ograve" unicode="&#xf2;" horiz-adv-x="1136" 
d="M336 1374q0 80 78 109q35 10 43 10q61 0 98 -47q101 -119 242 -279l-72 -73q-297 154 -328 168q-61 32 -61 112zM295 475q1 -117 79 -202t194 -85t195 85t79 202t-78 201t-196 84t-196 -84t-77 -201zM72 475q0 209 146 353t350 143q204 1 350 -143t147 -353
q0 -209 -146 -353q-147 -144 -351 -144t-350 144t-146 353z" />
    <glyph glyph-name="oacute" unicode="&#xf3;" horiz-adv-x="1136" 
d="M680 1493q8 0 43 -11t55 -44t21 -68q0 -80 -60 -108l-327 -168l-74 73q23 25 244 279q37 47 98 47zM295 475q1 -117 79 -202t194 -85t195 85t79 202t-78 201t-196 84t-196 -84t-77 -201zM72 475q0 209 146 353t350 143q204 1 350 -143t147 -353q0 -209 -146 -353
q-147 -144 -351 -144t-350 144t-146 353z" />
    <glyph glyph-name="ocircumflex" unicode="&#xf4;" horiz-adv-x="1136" 
d="M377 1098l-96 59l196 305h180l197 -305l-96 -59l-191 221zM295 475q1 -117 79 -202t194 -85t195 85t79 202t-78 201t-196 84t-196 -84t-77 -201zM72 475q0 209 146 353t350 143q204 1 350 -143t147 -353q0 -209 -146 -353q-147 -144 -351 -144t-350 144t-146 353z" />
    <glyph glyph-name="otilde" unicode="&#xf5;" horiz-adv-x="1136" 
d="M752 1303q58 0 102 69l109 -61q-5 -18 -28 -59q-75 -130 -196 -131q-85 -1 -195 44t-151 45t-69 -17t-33 -36l-8 -18l-105 71q5 20 32 63q69 115 217 117q55 0 161 -43q106 -44 164 -44zM295 475q1 -117 79 -202t194 -85t195 85t79 202t-78 201t-196 84t-196 -84
t-77 -201zM72 475q0 209 146 353t350 143q204 1 350 -143t147 -353q0 -209 -146 -353q-147 -144 -351 -144t-350 144t-146 353z" />
    <glyph glyph-name="odieresis" unicode="&#xf6;" horiz-adv-x="1136" 
d="M199 1266q0 61 42 105t103 44q62 0 106 -44t44 -105q0 -60 -44 -104t-106 -44t-103 44q-42 44 -42 104zM639 1266q0 61 42 105t103 44q62 0 106 -44t44 -105q0 -60 -44 -104t-106 -44t-103 44q-42 44 -42 104zM295 475q1 -117 79 -202t194 -85t195 85t79 202t-78 201
t-196 84t-196 -84t-77 -201zM72 475q0 209 146 353t350 143q204 1 350 -143t147 -353q0 -209 -146 -353q-147 -144 -351 -144t-350 144t-146 353z" />
    <glyph glyph-name="divide" unicode="&#xf7;" horiz-adv-x="1093" 
d="M102 485v199h889v-199h-889zM395 911q0 63 43 107q42 44 106 45q64 0 108 -44q44 -43 44 -107t-44 -108t-107 -44t-107 44q-43 44 -43 107zM395 257q0 63 43 107q42 44 106 44t108 -44t44 -106t-44 -107t-107 -45t-107 44t-43 107z" />
    <glyph glyph-name="oslash" unicode="&#xf8;" horiz-adv-x="1136" 
d="M569 760q-119 0 -197 -84t-77 -186q0 -102 45 -175l352 414q-55 31 -123 31zM569 188q115 0 194 85t79 189t-47 175l-355 -416q61 -33 129 -33zM569 971q145 0 265 -78l47 57h182l-125 -145q127 -141 127 -340t-146 -343t-350 -145q-145 0 -268 78l-47 -55h-182l125 145
q-125 141 -125 340t146 343t351 143z" />
    <glyph glyph-name="ugrave" unicode="&#xf9;" horiz-adv-x="1107" 
d="M324 1374q0 80 77 109q37 10 43 10q61 0 99 -47q100 -119 241 -279l-71 -73q-297 154 -328 168q-61 32 -61 112zM555 -23q-172 0 -292 117t-120 320v536h224v-536q0 -109 53 -167q53 -59 135 -59t135 58t53 168v536h222v-536q0 -203 -119 -320t-291 -117z" />
    <glyph glyph-name="uacute" unicode="&#xfa;" horiz-adv-x="1107" 
d="M666 1493q6 0 42 -11t56 -44t20 -68q0 -80 -59 -108l-328 -168l-73 73q23 25 243 279q37 47 99 47zM555 -23q-172 0 -292 117t-120 320v536h224v-536q0 -109 53 -167q53 -59 135 -59t135 58t53 168v536h222v-536q0 -203 -119 -320t-291 -117z" />
    <glyph glyph-name="ucircumflex" unicode="&#xfb;" horiz-adv-x="1107" 
d="M365 1098l-97 59l197 305h180l197 -305l-97 -59l-190 221zM555 -23q-172 0 -292 117t-120 320v536h224v-536q0 -109 53 -167q53 -59 135 -59t135 58t53 168v536h222v-536q0 -203 -119 -320t-291 -117z" />
    <glyph glyph-name="udieresis" unicode="&#xfc;" horiz-adv-x="1107" 
d="M197 1266q0 61 42 105t103 44t105 -44q45 -44 45 -105q0 -60 -44 -104t-106 -44q-61 0 -103 44t-42 104zM637 1266q0 61 42 105t103 44q62 0 106 -44t44 -105q0 -60 -44 -104t-106 -44t-103 44q-42 44 -42 104zM555 -23q-172 0 -292 117t-120 320v536h224v-536
q0 -109 53 -167q53 -59 135 -59t135 58t53 168v536h222v-536q0 -203 -119 -320t-291 -117z" />
    <glyph glyph-name="yacute" unicode="&#xfd;" horiz-adv-x="1073" 
d="M680 1493q8 0 43 -11t55 -44t21 -68q0 -80 -60 -108l-327 -168l-74 73q23 25 244 279q37 47 98 47zM819 950h223l-518 -1462h-223l180 512h-90l-360 950h221l287 -743h22z" />
    <glyph glyph-name="thorn" unicode="&#xfe;" horiz-adv-x="1239" 
d="M643 188q119 0 201 83t82 204t-82 204t-201 83t-199 -83t-80 -204t80 -204t199 -83zM383 -512h-219v1974l74 74h145v-678q115 115 276 115q203 -1 345 -147t143 -351q0 -205 -142 -351t-346 -147q-164 0 -276 113v-602z" />
    <glyph glyph-name="ydieresis" unicode="&#xff;" horiz-adv-x="1073" 
d="M819 950h223l-518 -1462h-223l180 512h-90l-360 950h221l287 -743h22zM158 1266q0 61 44 106t104 45t104 -45t45 -106q0 -60 -44 -104q-45 -44 -105 -44t-104 44t-44 104zM598 1266q0 61 44 106t104 45t104 -45t45 -106q0 -60 -44 -104q-45 -44 -105 -44t-104 44t-44 104
z" />
    <glyph glyph-name="Amacron" unicode="&#x100;" 
d="M479 1630v164h576v-164h-576zM766 1221l-258 -674h516zM911 1462l580 -1462h-256l-125 326h-688l-125 -326h-256l580 1462h290z" />
    <glyph glyph-name="amacron" unicode="&#x101;" horiz-adv-x="1103" 
d="M246 1167v164h575v-164h-575zM500 162q108 0 162 78q53 78 53 178h-246q-94 0 -132 -37t-38 -88t47 -91q46 -40 154 -40zM920 674v-461h81v-213h-163l-88 88q-94 -111 -268 -111q-174 -1 -282 87t-108 233q0 214 222 274q75 20 173 21h218v55q1 61 -57 98t-132 37
q-129 0 -176 -94l-184 84q84 201 372 201q162 0 277 -76t115 -223z" />
    <glyph glyph-name="Abreve" unicode="&#x102;" 
d="M502 1763h164q0 -35 30 -57t70 -23q41 0 70 23t28 57h166q0 -94 -77 -154q-77 -61 -187 -61t-188 60q-76 60 -76 155zM766 1221l-258 -674h516zM911 1462l580 -1462h-256l-125 326h-688l-125 -326h-256l580 1462h290z" />
    <glyph glyph-name="abreve" unicode="&#x103;" horiz-adv-x="1103" 
d="M276 1331h164q0 -35 30 -57t71 -23q41 0 69 23t29 57h166q0 -94 -77 -154q-78 -61 -188 -61t-187 60t-77 155zM500 162q108 0 162 78q53 78 53 178h-246q-94 0 -132 -37t-38 -88t47 -91q46 -40 154 -40zM920 674v-461h81v-213h-163l-88 88q-94 -111 -268 -111
q-174 -1 -282 87t-108 233q0 214 222 274q75 20 173 21h218v55q1 61 -57 98t-132 37q-129 0 -176 -94l-184 84q84 201 372 201q162 0 277 -76t115 -223z" />
    <glyph glyph-name="Aogonek" unicode="&#x104;" 
d="M766 1221l-258 -674h516zM1223 -238q0 123 129 238h-117l-125 326h-688l-125 -326h-256l580 1462h290l580 -1462v-25q-63 -87 -63 -165t88 -78l-41 -144q-252 16 -252 174z" />
    <glyph glyph-name="aogonek" unicode="&#x105;" horiz-adv-x="1097" 
d="M500 162q108 0 162 78q53 78 53 178h-246q-94 0 -132 -37t-38 -88t47 -91q46 -40 154 -40zM528 973q162 0 277 -76t115 -223v-699q-66 -83 -66 -163t90 -80l-43 -144q-250 16 -250 174q0 68 46 141t114 122l-61 63q-94 -111 -268 -111q-174 -1 -282 87t-108 233
q0 214 222 274q75 20 173 21h218v55q1 61 -57 98t-132 37q-129 0 -176 -94l-184 84q83 201 372 201z" />
    <glyph glyph-name="Cacute" unicode="&#x106;" horiz-adv-x="1449" 
d="M936 1948q6 0 42 -12t56 -44q20 -33 21 -67q0 -80 -60 -109l-327 -168l-74 74q23 25 244 279q37 47 98 47zM844 197q215 0 356 155l178 -145q-102 -113 -243 -174t-299 -62q-301 0 -523 220q-221 220 -221 541t221 541t523 220t518 -211l-176 -152q-139 136 -344 136
q-204 0 -348 -158t-144 -375t143 -377q144 -159 359 -159z" />
    <glyph glyph-name="cacute" unicode="&#x107;" horiz-adv-x="968" 
d="M592 1493q6 0 42 -11t56 -44t21 -68q0 -80 -60 -108l-327 -168l-74 73q23 25 244 279q37 47 98 47zM562 762q-112 0 -190 -85t-79 -201q1 -116 79 -202t186 -86t190 91l170 -134q-150 -168 -351 -168q-201 -1 -348 145t-147 353t146 352t349 146q99 0 191 -39t139 -107
l-152 -153q-71 88 -183 88z" />
    <glyph glyph-name="Ccircumflex" unicode="&#x108;" horiz-adv-x="1449" 
d="M639 1550l-96 60l196 305h181l196 -305l-96 -60l-191 222zM844 197q215 0 356 155l178 -145q-102 -113 -243 -174t-299 -62q-301 0 -523 220q-221 220 -221 541t221 541t523 220t518 -211l-176 -152q-139 136 -344 136q-204 0 -348 -158t-144 -375t143 -377
q144 -159 359 -159z" />
    <glyph glyph-name="ccircumflex" unicode="&#x109;" horiz-adv-x="968" 
d="M377 1098l-96 59l196 305h180l197 -305l-96 -59l-191 221zM562 762q-112 0 -190 -85t-79 -201q1 -116 79 -202t186 -86t190 91l170 -134q-150 -168 -351 -168q-201 -1 -348 145t-147 353t146 352t349 146q99 0 191 -39t139 -107l-152 -153q-71 88 -183 88z" />
    <glyph glyph-name="Cdotaccent" unicode="&#x10a;" horiz-adv-x="1449" 
d="M686 1751q0 61 43 105t105 45q62 0 105 -44q44 -43 44 -105t-44 -105t-105 -43t-105 43q-43 43 -43 104zM844 197q215 0 356 155l178 -145q-102 -113 -243 -174t-299 -62q-301 0 -523 220q-221 220 -221 541t221 541t523 220t518 -211l-176 -152q-139 136 -344 136
q-204 0 -348 -158t-144 -375t143 -377q144 -159 359 -159z" />
    <glyph glyph-name="cdotaccent" unicode="&#x10b;" horiz-adv-x="968" 
d="M418 1266q0 61 43 105t104 44t105 -44t45 -105q0 -60 -44 -104q-43 -44 -105 -44t-105 44t-43 104zM562 762q-112 0 -190 -85t-79 -201q1 -116 79 -202t186 -86t190 91l170 -134q-150 -168 -351 -168q-201 -1 -348 145t-147 353t146 352t349 146q99 0 191 -39t139 -107
l-152 -153q-71 88 -183 88z" />
    <glyph glyph-name="Ccaron" unicode="&#x10c;" horiz-adv-x="1449" 
d="M539 1862l98 61l194 -227l195 227l98 -61l-200 -314h-185zM844 197q215 0 356 155l178 -145q-102 -113 -243 -174t-299 -62q-301 0 -523 220q-221 220 -221 541t221 541t523 220t518 -211l-176 -152q-139 136 -344 136q-204 0 -348 -158t-144 -375t143 -377
q144 -159 359 -159z" />
    <glyph glyph-name="ccaron" unicode="&#x10d;" horiz-adv-x="968" 
d="M289 1403l98 61l195 -227l194 227l98 -61l-200 -313h-185zM562 762q-112 0 -190 -85t-79 -201q1 -116 79 -202t186 -86t190 91l170 -134q-150 -168 -351 -168q-201 -1 -348 145t-147 353t146 352t349 146q99 0 191 -39t139 -107l-152 -153q-71 88 -183 88z" />
    <glyph glyph-name="Dcaron" unicode="&#x10e;" horiz-adv-x="1443" 
d="M467 1862l98 61l195 -227l194 227l99 -61l-201 -314h-184zM416 1241v-1018h233q185 0 319 107q69 55 108 157q40 101 40 243q0 279 -148 404q-132 107 -319 107h-233zM184 0v1462h480q288 0 488 -192t200 -539t-200 -539t-488 -192h-480z" />
    <glyph glyph-name="dcaron" unicode="&#x10f;" horiz-adv-x="1331" 
d="M1147 1135v67l137 334h252l-256 -401h-133zM577 188q117 0 197 83t80 204t-80 204t-198 83t-199 -83q-82 -83 -82 -204t82 -204t200 -83zM559 973q162 0 277 -115v604l71 74h148v-1323h84v-213h-211l-92 92q-109 -115 -275 -115q-205 1 -347 147t-142 351t142 351
t345 147z" />
    <glyph glyph-name="Dcroat" unicode="&#x110;" horiz-adv-x="1443" 
d="M694 664h-278v-441h233q185 0 319 107q69 55 108 157q40 101 40 243q0 279 -148 404q-132 107 -319 107h-233v-395h278v-182zM55 664v182h131v616h478q186 0 340 -80t250 -248t98 -403q0 -347 -199 -539t-489 -192h-478v664h-131z" />
    <glyph glyph-name="dcroat" unicode="&#x111;" horiz-adv-x="1245" 
d="M577 188q117 0 197 83t80 204t-80 204t-198 83t-199 -83q-82 -83 -82 -204t82 -204t200 -83zM565 1114v158h271v190l73 74h146v-264h149v-158h-149v-901h84v-213h-209l-92 92q-109 -115 -277 -115q-205 1 -347 147t-142 351t142 351t345 147q162 0 277 -115v256h-271z
" />
    <glyph glyph-name="Emacron" unicode="&#x112;" horiz-adv-x="1349" 
d="M461 1630v164h575v-164h-575zM184 0v1462h1053v-221h-823v-373h778v-221h-778v-424h823v-223h-1053z" />
    <glyph glyph-name="emacron" unicode="&#x113;" horiz-adv-x="1044" 
d="M231 1167v164h576v-164h-576zM538 778q-87 0 -153 -52t-82 -134h461q-10 80 -74 133t-152 53zM522 182q152 0 236 133l180 -98q-62 -104 -164 -172t-235 -68q-201 1 -334 147t-133 350t133 351t330 147t319 -139q122 -140 129 -335l-82 -80h-608q8 -104 79 -170
q70 -66 150 -66z" />
    <glyph glyph-name="Ebreve" unicode="&#x114;" horiz-adv-x="1349" 
d="M481 1780h164q0 -35 30 -58q31 -22 71 -22t69 22t29 58h166q0 -94 -77 -154t-188 -61q-111 1 -187 61t-77 154zM184 0v1462h1053v-221h-823v-373h778v-221h-778v-424h823v-223h-1053z" />
    <glyph glyph-name="ebreve" unicode="&#x115;" horiz-adv-x="1044" 
d="M268 1331h164q0 -35 30 -57t70 -23q40 0 70 23q29 23 29 57h166q0 -94 -77 -154q-77 -61 -188 -61q-112 0 -188 60t-76 155zM538 778q-87 0 -153 -52t-82 -134h461q-10 80 -74 133t-152 53zM522 182q152 0 236 133l180 -98q-62 -104 -164 -172t-235 -68q-201 1 -334 147
t-133 350t133 351t330 147t319 -139q122 -140 129 -335l-82 -80h-608q8 -104 79 -170q70 -66 150 -66z" />
    <glyph glyph-name="Edotaccent" unicode="&#x116;" horiz-adv-x="1349" 
d="M555 1751q0 61 43 105t104 45q62 0 106 -44q44 -43 44 -105t-44 -105t-106 -43t-104 43q-43 43 -43 104zM184 0v1462h1053v-221h-823v-373h778v-221h-778v-424h823v-223h-1053z" />
    <glyph glyph-name="edotaccent" unicode="&#x117;" horiz-adv-x="1044" 
d="M393 1266q0 61 43 105q42 44 104 44t106 -44t44 -105q0 -60 -44 -104t-105 -44t-105 43q-43 44 -43 105zM538 778q-87 0 -153 -52t-82 -134h461q-10 80 -74 133t-152 53zM522 182q152 0 236 133l180 -98q-62 -104 -164 -172t-235 -68q-201 1 -334 147t-133 350t133 351
t330 147t319 -139q122 -140 129 -335l-82 -80h-608q8 -104 79 -170q70 -66 150 -66z" />
    <glyph glyph-name="Eogonek" unicode="&#x118;" horiz-adv-x="1349" 
d="M184 0v1462h1053v-221h-823v-373h778v-221h-778v-424h823v-248q-63 -88 -63 -161q0 -82 90 -82l-43 -144q-250 16 -250 174q0 125 127 238h-914z" />
    <glyph glyph-name="eogonek" unicode="&#x119;" horiz-adv-x="1044" 
d="M538 778q-87 0 -153 -52t-82 -134h461q-10 80 -74 133t-152 53zM522 182q152 0 236 133l180 -98l-43 -61q-2 -2 -46 -62q-45 -60 -63 -90q-18 -29 -41 -86t-22 -104q0 -82 90 -82l-43 -144q-250 16 -250 174q0 104 135 232q-59 -16 -116 -17q-201 1 -334 147t-133 350
t133 351t330 147t319 -139q122 -140 129 -335l-82 -80h-608q8 -104 79 -170q70 -66 150 -66z" />
    <glyph glyph-name="Ecaron" unicode="&#x11a;" horiz-adv-x="1349" 
d="M432 1862l98 61l195 -227l195 227l98 -61l-201 -314h-184zM184 0v1462h1053v-221h-823v-373h778v-221h-778v-424h823v-223h-1053z" />
    <glyph glyph-name="ecaron" unicode="&#x11b;" horiz-adv-x="1044" 
d="M254 1403l98 61l195 -227l194 227l99 -61l-201 -313h-184zM538 778q-87 0 -153 -52t-82 -134h461q-10 80 -74 133t-152 53zM522 182q152 0 236 133l180 -98q-62 -104 -164 -172t-235 -68q-201 1 -334 147t-133 350t133 351t330 147t319 -139q122 -140 129 -335l-82 -80
h-608q8 -104 79 -170q70 -66 150 -66z" />
    <glyph glyph-name="Gcircumflex" unicode="&#x11c;" horiz-adv-x="1632" 
d="M657 1548l-96 60l197 305h180l197 -305l-97 -60l-190 221zM838 197q254 0 397 174v184h-303v221h536v-508q-268 -297 -630 -297q-315 0 -531 217q-215 216 -215 538t218 544t522 223q304 0 534 -213l-162 -172q-152 158 -368 158t-356 -159t-140 -374t141 -376
q142 -160 357 -160z" />
    <glyph glyph-name="gcircumflex" unicode="&#x11d;" horiz-adv-x="1075" 
d="M346 1098l-96 59l196 305h181l196 -305l-96 -59l-190 221zM536 397q77 -1 128 53t51 132t-51 131t-128 53t-128 -53q-52 -53 -52 -131t52 -132t128 -53zM309 -184q0 -60 47 -99t131 -39h117q78 0 122 39t44 85t-30 76t-83 30h-256l-20 -2q-72 -30 -72 -90zM971 950v-196
h-97q43 -90 44 -172q0 -160 -112 -272t-271 -111q-90 0 -179 47q-30 -18 -30 -54t19 -58t56 -21h256q143 -1 229 -95t87 -220q0 -126 -104 -224t-265 -98h-117q-166 0 -270 92t-104 213q1 63 33 125t77 86q-86 66 -86 172t96 184q-79 98 -79 245t110 261t260 113
q150 0 254 -88l72 71h121z" />
    <glyph glyph-name="Gbreve" unicode="&#x11e;" horiz-adv-x="1632" 
d="M573 1778h164q0 -35 30 -58q30 -22 71 -22q42 0 70 22t28 58h166q0 -94 -77 -154t-187 -61q-110 1 -188 61q-77 60 -77 154zM838 197q254 0 397 174v184h-303v221h536v-508q-268 -297 -630 -297q-315 0 -531 217q-215 216 -215 538t218 544t522 223q304 0 534 -213
l-162 -172q-152 158 -368 158t-356 -159t-140 -374t141 -376q142 -160 357 -160z" />
    <glyph glyph-name="gbreve" unicode="&#x11f;" horiz-adv-x="1075" 
d="M270 1331h164q0 -35 30 -57t71 -23q41 0 69 23t29 57h166q0 -94 -77 -154q-78 -61 -188 -61t-187 60t-77 155zM536 397q77 -1 128 53t51 132t-51 131t-128 53t-128 -53q-52 -53 -52 -131t52 -132t128 -53zM309 -184q0 -60 47 -99t131 -39h117q78 0 122 39t44 85t-30 76
t-83 30h-256l-20 -2q-72 -30 -72 -90zM971 950v-196h-97q43 -90 44 -172q0 -160 -112 -272t-271 -111q-90 0 -179 47q-30 -18 -30 -54t19 -58t56 -21h256q143 -1 229 -95t87 -220q0 -126 -104 -224t-265 -98h-117q-166 0 -270 92t-104 213q1 63 33 125t77 86q-86 66 -86 172
t96 184q-79 98 -79 245t110 261t260 113q150 0 254 -88l72 71h121z" />
    <glyph glyph-name="Gdotaccent" unicode="&#x120;" horiz-adv-x="1632" 
d="M686 1751q0 61 43 105t105 45q62 0 105 -44q44 -43 44 -105t-44 -105t-105 -43t-105 43q-43 43 -43 104zM838 197q254 0 397 174v184h-303v221h536v-508q-268 -297 -630 -297q-315 0 -531 217q-215 216 -215 538t218 544t522 223q304 0 534 -213l-162 -172
q-152 158 -368 158t-356 -159t-140 -374t141 -376q142 -160 357 -160z" />
    <glyph glyph-name="gdotaccent" unicode="&#x121;" horiz-adv-x="1075" 
d="M389 1266q0 61 43 105q42 44 104 44t106 -44t44 -105q0 -60 -44 -104t-105 -44t-105 43q-43 44 -43 105zM536 397q77 -1 128 53t51 132t-51 131t-128 53t-128 -53q-52 -53 -52 -131t52 -132t128 -53zM309 -184q0 -60 47 -99t131 -39h117q78 0 122 39t44 85t-30 76t-83 30
h-256l-20 -2q-72 -30 -72 -90zM971 950v-196h-97q43 -90 44 -172q0 -160 -112 -272t-271 -111q-90 0 -179 47q-30 -18 -30 -54t19 -58t56 -21h256q143 -1 229 -95t87 -220q0 -126 -104 -224t-265 -98h-117q-166 0 -270 92t-104 213q1 63 33 125t77 86q-86 66 -86 172t96 184
q-79 98 -79 245t110 261t260 113q150 0 254 -88l72 71h121z" />
    <glyph glyph-name="Gcommaaccent" unicode="&#x122;" horiz-adv-x="1632" 
d="M838 197q254 0 397 174v184h-303v221h536v-508q-268 -297 -630 -297q-315 0 -531 217q-215 216 -215 538t218 544t522 223q304 0 534 -213l-162 -172q-152 158 -368 158t-356 -159t-140 -374t141 -376q142 -160 357 -160zM584 -512v68l137 333h250l-254 -401h-133z" />
    <glyph glyph-name="gcommaaccent" unicode="&#x123;" horiz-adv-x="1075" 
d="M536 397q77 -1 128 53t51 132t-51 131t-128 53t-128 -53q-52 -53 -52 -131t52 -132t128 -53zM309 -184q0 -60 47 -99t131 -39h117q78 0 122 39t44 85t-30 76t-83 30h-256l-20 -2q-72 -30 -72 -90zM971 950v-196h-97q43 -90 44 -172q0 -160 -112 -272t-271 -111
q-90 0 -179 47q-30 -18 -30 -54t19 -58t56 -21h256q143 -1 229 -95t87 -220q0 -126 -104 -224t-265 -98h-117q-166 0 -270 92t-104 213q1 63 33 125t77 86q-86 66 -86 172t96 184q-79 98 -79 245t110 261t260 113q150 0 254 -88l72 71h121zM707 1462v-67l-138 -332h-250
l254 399h134z" />
    <glyph glyph-name="Hcircumflex" unicode="&#x124;" horiz-adv-x="1589" 
d="M184 0v1462h234v-620h753v620h234v-1462h-234v621h-753v-621h-234zM608 1550l-96 60l197 305h180l196 -305l-96 -60l-190 222z" />
    <glyph glyph-name="hcircumflex" unicode="&#x125;" horiz-adv-x="1112" 
d="M471 1550l-96 60l196 305h181l196 -305l-96 -60l-190 222zM969 569v-569h-224v569q0 89 -47 137t-127 48t-134 -43t-54 -107v-604h-219v1462l74 74h145v-668q111 96 250 96t237 -98t99 -297z" />
    <glyph glyph-name="Hbar" unicode="&#x126;" horiz-adv-x="1591" 
d="M418 1049v-207h753v207h-753zM1534 1049h-127v-1049h-236v621h-753v-621h-234v1049h-127v200h127v213h234v-213h753v213h236v-213h127v-200z" />
    <glyph glyph-name="hbar" unicode="&#x127;" horiz-adv-x="1112" 
d="M53 1118v164h111v180l74 74h145v-254h246v-164h-246v-250q113 96 251 96t236 -98t99 -297v-569h-221v569q0 89 -48 137t-129 48q-80 0 -134 -43t-54 -107v-604h-219v1118h-111z" />
    <glyph glyph-name="Itilde" unicode="&#x128;" horiz-adv-x="645" 
d="M154 1722q-42 0 -69 -17q-28 -17 -36 -36l-6 -18l-104 71q5 19 27 57q23 37 48 61t71 43t102 19q55 0 161 -43q106 -44 148 -44t68 17q28 17 38 36l12 16l109 -61q-6 -22 -32 -66q-71 -123 -214 -125q-61 0 -171 45t-152 45zM205 0v1462h235v-1462h-235z" />
    <glyph glyph-name="itilde" unicode="&#x129;" horiz-adv-x="546" 
d="M403 0h-219v754h-84v196h226l77 -78v-872zM136 1210q-36 0 -64 -17t-41 -36l-13 -18l-92 71q4 16 29 55q79 123 207 126q53 0 124 -44q70 -44 106 -44t66 17t44 36l14 16l94 -61q-5 -18 -30 -59q-129 -207 -332 -87q-76 45 -112 45z" />
    <glyph glyph-name="Imacron" unicode="&#x12a;" horiz-adv-x="645" 
d="M35 1630v164h575v-164h-575zM205 0v1462h235v-1462h-235z" />
    <glyph glyph-name="imacron" unicode="&#x12b;" horiz-adv-x="546" 
d="M-20 1167v164h575v-164h-575zM403 0h-219v754h-84v196h226l77 -78v-872z" />
    <glyph glyph-name="Ibreve" unicode="&#x12c;" horiz-adv-x="645" 
d="M63 1763h164q0 -35 30 -57t71 -23q42 0 70 23t28 57h166q0 -94 -77 -154q-77 -61 -187 -61t-188 60q-77 60 -77 155zM205 0v1462h235v-1462h-235z" />
    <glyph glyph-name="ibreve" unicode="&#x12d;" horiz-adv-x="546" 
d="M4 1333h164q0 -35 30 -57t70 -23q40 0 70 23q29 23 29 57h165q0 -94 -76 -154q-76 -61 -188 -61t-188 60t-76 155zM403 0h-219v754h-84v196h226l77 -78v-872z" />
    <glyph glyph-name="Iogonek" unicode="&#x12e;" horiz-adv-x="645" 
d="M205 0v1462h235v-1487q-63 -88 -63 -161q0 -82 90 -82l-43 -144q-250 16 -250 174q0 125 127 238h-96z" />
    <glyph glyph-name="iogonek" unicode="&#x12f;" horiz-adv-x="546" 
d="M98 1335q0 66 46 112t111 46t111 -46q46 -47 46 -111t-46 -110t-112 -46t-111 44t-45 111zM340 -186q0 -82 90 -82l-43 -144q-250 16 -250 174q0 125 127 238h-80v754h-84v196h226l77 -78v-897q-63 -88 -63 -161z" />
    <glyph glyph-name="Idotaccent" unicode="&#x130;" horiz-adv-x="645" 
d="M174 1751q0 61 43 105t105 45q62 0 105 -44q44 -43 44 -105t-44 -105t-105 -43t-105 43q-43 43 -43 104zM205 0v1462h235v-1462h-235z" />
    <glyph glyph-name="dotlessi" unicode="&#x131;" horiz-adv-x="546" 
d="M403 0h-219v754h-84v196h226l77 -78v-872z" />
    <glyph glyph-name="IJ" unicode="&#x132;" horiz-adv-x="1529" 
d="M184 0v1462h236v-1462h-236zM1118 453v1009h228v-1013q0 -223 -120 -351t-341 -127q-270 0 -393 211v74l170 96q84 -162 223 -162q115 0 174 71t59 192z" />
    <glyph glyph-name="ij" unicode="&#x133;" horiz-adv-x="1062" 
d="M127 1335q0 66 46 112t111 46q64 0 110 -46q46 -47 46 -111t-46 -110t-112 -46t-110 44q-45 44 -45 111zM639 1335q0 66 46 112t111 46q64 0 110 -46q46 -47 46 -111t-46 -110t-112 -46t-110 44q-45 44 -45 111zM403 0h-219v754h-84v196h226l77 -78v-872zM700 -170v924
h-127v196h269l78 -78v-1036q0 -186 -92 -273t-242 -87q-180 0 -291 162l190 98q27 -43 87 -43q60 -1 94 35t34 102z" />
    <glyph glyph-name="Jcircumflex" unicode="&#x134;" horiz-adv-x="1085" 
d="M594 1550l-96 60l196 305h180l197 -305l-96 -60l-191 222zM674 453v1009h227v-1013q0 -223 -119 -351t-340 -127q-154 0 -262 71t-160 198l197 112q84 -162 225 -162q112 0 172 71t60 192z" />
    <glyph glyph-name="jcircumflex" unicode="&#x135;" horiz-adv-x="546" 
d="M55 1098l-96 59l197 305h180l196 -305l-96 -59l-190 221zM184 -170v924h-127v196h269l77 -78v-1036q0 -186 -91 -273t-242 -87q-180 0 -291 162l190 98q27 -43 87 -43q60 -1 94 35t34 102z" />
    <glyph glyph-name="Kcommaaccent" unicode="&#x136;" horiz-adv-x="1359" 
d="M184 0v1462h236v-712l555 712h299l-490 -608l555 -854h-286l-428 664l-205 -258v-406h-236zM432 -512v68l137 333h250l-254 -401h-133z" />
    <glyph glyph-name="kcommaaccent" unicode="&#x137;" horiz-adv-x="1091" 
d="M379 754v-316l254 316h-254zM383 0h-219v1462l72 74h147v-586h547v-127l-213 -260l375 -563h-250l-262 397l-197 -241v-156zM276 -512v68l138 333h250l-254 -401h-134z" />
    <glyph glyph-name="kgreenlandic" unicode="&#x138;" horiz-adv-x="1009" 
d="M967 950v-41l-283 -346l326 -489v-74h-201l-262 397l-164 -198v-199h-219v754h-82v196h174l127 -125v-342l371 467h213z" />
    <glyph glyph-name="Lacute" unicode="&#x139;" horiz-adv-x="1167" 
d="M510 1948q6 0 42 -12t56 -44q20 -33 21 -67q0 -80 -60 -109l-327 -168l-74 74q23 25 244 279q37 47 98 47zM184 0v1462h236v-1239h727v-223h-963z" />
    <glyph glyph-name="lacute" unicode="&#x13a;" horiz-adv-x="569" 
d="M418 1968q6 0 42 -11t56 -44t21 -68q0 -80 -60 -108l-327 -168l-74 73q23 25 243 279q37 47 99 47zM377 1536v-1323h84v-213h-215l-92 94v1368l71 74h152z" />
    <glyph glyph-name="Lcommaaccent" unicode="&#x13b;" horiz-adv-x="1167" 
d="M184 0v1462h236v-1239h727v-223h-963zM408 -512v68l137 333h252l-256 -401h-133z" />
    <glyph glyph-name="lcommaaccent" unicode="&#x13c;" horiz-adv-x="569" 
d="M377 1536v-1323h84v-213h-215l-92 94v1368l71 74h152zM61 -512v68l138 333h250l-254 -401h-134z" />
    <glyph glyph-name="Lcaron" unicode="&#x13d;" horiz-adv-x="1167" 
d="M184 0v1462h236v-1239h727v-223h-963zM494 1135v67l137 334h250l-254 -401h-133z" />
    <glyph glyph-name="lcaron" unicode="&#x13e;" horiz-adv-x="569" 
d="M377 1536v-1323h84v-213h-215l-92 94v1368l71 74h152zM465 1135v67l137 334h250l-254 -401h-133z" />
    <glyph glyph-name="Ldot" unicode="&#x13f;" horiz-adv-x="1167" 
d="M184 0v1462h236v-1239h727v-223h-963zM889 615q0 -67 -47 -113t-114 -47q-67 1 -114 47t-47 113t47 115t114 48t114 -48t47 -115z" />
    <glyph glyph-name="ldot" unicode="&#x140;" horiz-adv-x="704" 
d="M467 492q0 61 43 105t104 44q62 0 106 -44t44 -105q0 -60 -44 -104t-106 -44t-104 44q-43 44 -43 104zM377 1536v-1323h84v-213h-215l-92 94v1368l71 74h152z" />
    <glyph glyph-name="Lslash" unicode="&#x141;" horiz-adv-x="1179" 
d="M197 1462h235v-667l217 143l90 -135l-307 -201v-379h727v-223h-962v449l-103 -68l-90 135l193 127v819z" />
    <glyph glyph-name="lslash" unicode="&#x142;" horiz-adv-x="569" 
d="M377 1536v-623l106 68l90 -133l-196 -129v-506h84v-213h-213l-94 94v475l-74 -47l-88 135l162 105v700l73 74h150z" />
    <glyph glyph-name="Nacute" unicode="&#x143;" horiz-adv-x="1630" 
d="M977 1948q6 0 42 -12t56 -44q20 -33 21 -67q0 -80 -60 -109l-327 -168l-74 74q23 25 244 279q37 47 98 47zM184 0v1462h281l747 -1140v1140h234v-1462h-303l-723 1104v-1104h-236z" />
    <glyph glyph-name="nacute" unicode="&#x144;" horiz-adv-x="1134" 
d="M719 1493q6 0 42 -11t56 -44t21 -68q0 -80 -60 -108l-327 -168l-74 73q23 25 244 279q37 47 98 47zM991 0h-223v573q0 89 -47 137t-127 48t-134 -44t-54 -110v-604h-220v754h-84v196h177l88 -88q133 106 280 106t245 -98t99 -297v-573z" />
    <glyph glyph-name="Ncommaaccent" unicode="&#x145;" horiz-adv-x="1630" 
d="M184 0v1462h281l747 -1140v1140h234v-1462h-303l-723 1104v-1104h-236zM575 -512v68l138 333h250l-254 -401h-134z" />
    <glyph glyph-name="ncommaaccent" unicode="&#x146;" horiz-adv-x="1134" 
d="M322 -512v68l137 333h250l-254 -401h-133zM991 573v-573h-223v573q0 89 -47 137t-128 48t-134 -46t-53 -114v-598h-220v754h-84v196h177l88 -88q133 106 280 106t245 -98t99 -297z" />
    <glyph glyph-name="Ncaron" unicode="&#x147;" horiz-adv-x="1630" 
d="M543 1862l98 61l195 -227l194 227l98 -61l-200 -314h-185zM184 0v1462h281l747 -1140v1140h234v-1462h-303l-723 1104v-1104h-236z" />
    <glyph glyph-name="ncaron" unicode="&#x148;" horiz-adv-x="1134" 
d="M307 1403l99 61l194 -227l195 227l98 -61l-201 -313h-184zM991 0h-223v573q0 89 -47 137t-127 48t-134 -44t-54 -110v-604h-220v754h-84v196h177l88 -88q133 106 280 106t245 -98t99 -297v-573z" />
    <glyph glyph-name="napostrophe" unicode="&#x149;" horiz-adv-x="1163" 
d="M1020 573v-573h-221v573q0 89 -48 137t-128 48q-81 0 -135 -44t-54 -110v-604h-219v754h-82v196h174l90 -88q133 106 279 106t246 -98q98 -98 98 -297zM-82 995l207 541h256l-285 -541h-178z" />
    <glyph glyph-name="Eng" unicode="&#x14a;" horiz-adv-x="1554" 
d="M184 0v1462h281l678 -1050v1050h227v-1511q0 -223 -119 -350t-340 -127q-153 0 -261 70t-161 198l197 113q88 -162 225 -162q113 1 172 71t60 191v45l-723 1104v-1104h-236z" />
    <glyph glyph-name="eng" unicode="&#x14b;" horiz-adv-x="1132" 
d="M768 -170v743q0 89 -48 137t-127 48t-134 -45t-56 -109v-604h-219v754h-82v196h174l91 -88q133 106 279 106t244 -98t99 -297v-737q0 -186 -92 -273t-244 -87q-182 0 -293 162l193 98q25 -43 85 -43q60 -1 95 35t35 102z" />
    <glyph glyph-name="Omacron" unicode="&#x14c;" horiz-adv-x="1712" 
d="M569 1630v164h576v-164h-576zM856 197q221 0 368 157q146 158 146 377t-146 377t-368 158t-368 -158t-146 -377t146 -377q147 -157 368 -157zM856 1493q316 0 540 -219t224 -543t-224 -542t-540 -218t-540 218t-224 542t224 543q225 219 540 219z" />
    <glyph glyph-name="omacron" unicode="&#x14d;" horiz-adv-x="1136" 
d="M281 1167v164h575v-164h-575zM295 475q1 -117 79 -202t194 -85t195 85t79 202t-78 201t-196 84t-196 -84t-77 -201zM72 475q0 209 146 353t350 143q204 1 350 -143t147 -353q0 -209 -146 -353q-147 -144 -351 -144t-350 144t-146 353z" />
    <glyph glyph-name="Obreve" unicode="&#x14e;" horiz-adv-x="1712" 
d="M592 1778h164q0 -35 30 -58q30 -22 70 -22q41 0 70 22t28 58h166q0 -94 -77 -154t-187 -61q-110 1 -188 61q-76 60 -76 154zM856 197q221 0 368 157q146 158 146 377t-146 377t-368 158t-368 -158t-146 -377t146 -377q147 -157 368 -157zM856 1493q316 0 540 -219
t224 -543t-224 -542t-540 -218t-540 218t-224 542t224 543q225 219 540 219z" />
    <glyph glyph-name="obreve" unicode="&#x14f;" horiz-adv-x="1136" 
d="M303 1331h164q0 -35 30 -57q31 -22 71 -23q40 0 69 23t29 57h165q-1 -94 -77 -154q-76 -61 -187 -61t-187 60t-77 155zM295 475q1 -117 79 -202t194 -85t195 85t79 202t-78 201t-196 84t-196 -84t-77 -201zM72 475q0 209 146 353t350 143q204 1 350 -143t147 -353
q0 -209 -146 -353q-147 -144 -351 -144t-350 144t-146 353z" />
    <glyph glyph-name="Ohungarumlaut" unicode="&#x150;" horiz-adv-x="1712" 
d="M1220 1935q114 -1 112 -117q0 -58 -62 -96l-312 -186l-71 74q141 160 241 278q38 47 92 47zM864 1935q111 1 111 -117q0 -58 -62 -96l-309 -186l-74 74q23 25 244 278q37 47 90 47zM856 197q221 0 368 157q146 158 146 377t-146 377t-368 158t-368 -158t-146 -377
t146 -377q147 -157 368 -157zM856 1493q316 0 540 -219t224 -543t-224 -542t-540 -218t-540 218t-224 542t224 543q225 219 540 219z" />
    <glyph glyph-name="ohungarumlaut" unicode="&#x151;" horiz-adv-x="1136" 
d="M933 1493q113 1 111 -117q0 -58 -61 -96l-311 -186l-72 73q141 160 242 279q37 47 91 47zM578 1493q110 -1 110 -119q0 -58 -61 -94l-310 -186l-73 73q23 25 243 279q37 47 91 47zM295 475q1 -117 79 -202t194 -85t195 85t79 202t-78 201t-196 84t-196 -84t-77 -201z
M72 475q0 209 146 353t350 143q204 1 350 -143t147 -353q0 -209 -146 -353q-147 -144 -351 -144t-350 144t-146 353z" />
    <glyph glyph-name="OE" unicode="&#x152;" horiz-adv-x="2056" 
d="M856 197q111 0 211 45v979q-100 45 -211 45q-222 0 -368 -158t-146 -377t146 -377q147 -157 368 -157zM1944 0h-875q-104 -29 -213 -29q-315 0 -540 218q-224 218 -224 542t224 543t540 219q111 0 211 -31h877v-221h-648v-373h602v-221h-602v-424h648v-223z" />
    <glyph glyph-name="oe" unicode="&#x153;" horiz-adv-x="1767" 
d="M1261 778q-87 0 -153 -52t-84 -134h463q-11 80 -75 133t-151 53zM295 475q1 -117 79 -202t194 -85t195 85t79 202t-78 201t-196 84t-196 -84t-77 -201zM1246 182q149 0 235 133l178 -98q-59 -102 -163 -171t-236 -69q-199 0 -338 150q-142 -150 -350 -150
q-208 1 -354 145t-146 353t146 352t351 143t355 -149q135 152 333 152q199 0 321 -140t128 -335l-82 -80h-610q10 -104 81 -170t151 -66z" />
    <glyph glyph-name="Racute" unicode="&#x154;" horiz-adv-x="1370" 
d="M801 1948q6 0 42 -12t56 -44q20 -33 21 -67q0 -80 -60 -109l-328 -168l-73 74q23 25 243 279q37 47 99 47zM696 1241h-280v-410h280q123 1 200 51t77 144t-68 154t-209 61zM184 0v1462h527q347 0 455 -279q28 -73 28 -171t-56 -196q-56 -97 -165 -150l377 -666h-269
l-338 610h-327v-610h-232z" />
    <glyph glyph-name="racute" unicode="&#x155;" horiz-adv-x="755" 
d="M406 586v-586h-220v754h-84v196h177l104 -104q86 123 238 123q49 0 94 -15l-64 -229q-35 12 -87 12t-105 -44t-53 -107zM539 1493q6 0 42 -11t56 -44t20 -68q0 -80 -59 -108l-328 -168l-73 73q23 25 243 279q37 47 99 47z" />
    <glyph glyph-name="Rcommaaccent" unicode="&#x156;" horiz-adv-x="1370" 
d="M696 1241h-280v-410h280q123 1 200 51t77 144t-68 154t-209 61zM184 0v1462h527q347 0 455 -279q28 -73 28 -171t-56 -196q-56 -97 -165 -150l377 -666h-269l-338 610h-327v-610h-232zM438 -512v68l137 333h250l-254 -401h-133z" />
    <glyph glyph-name="rcommaaccent" unicode="&#x157;" horiz-adv-x="755" 
d="M406 586v-586h-220v754h-84v196h177l104 -104q86 123 238 123q49 0 94 -15l-64 -229q-35 12 -87 12t-105 -44t-53 -107zM35 -512v68l137 333h250l-254 -401h-133z" />
    <glyph glyph-name="Rcaron" unicode="&#x158;" horiz-adv-x="1370" 
d="M412 1862l98 61l195 -227l194 227l98 -61l-200 -314h-185zM696 1241h-280v-410h280q123 1 200 51t77 144t-68 154t-209 61zM184 0v1462h527q347 0 455 -279q28 -73 28 -171t-56 -196q-56 -97 -165 -150l377 -666h-269l-338 610h-327v-610h-232z" />
    <glyph glyph-name="rcaron" unicode="&#x159;" horiz-adv-x="761" 
d="M135 1403l98 61l195 -227l195 227l98 -61l-201 -313h-184zM406 586v-586h-220v754h-84v196h177l104 -104q86 123 238 123q49 0 94 -15l-64 -229q-35 12 -87 12t-105 -44t-53 -107z" />
    <glyph glyph-name="Sacute" unicode="&#x15a;" horiz-adv-x="1421" 
d="M852 1948q8 0 43 -12t55 -44q20 -33 21 -67q0 -80 -60 -109l-327 -168l-74 74q23 25 244 279q37 47 98 47zM725 -29q-219 1 -393 97t-230 264l213 69q31 -92 149 -148t277 -56t263 77q63 48 63 114q0 124 -178 181q-80 27 -175 51q-96 24 -192 58t-176 79
q-80 46 -129 127t-49 191q0 197 163 307t369 111q365 0 529 -211l-176 -137q-49 59 -145 92t-216 33q-119 0 -203 -51q-83 -51 -83 -133t68 -137q68 -54 168 -79q101 -24 220 -60t220 -77t169 -129t68 -206t-58 -201q-99 -143 -342 -202q-100 -24 -194 -24z" />
    <glyph glyph-name="sacute" unicode="&#x15b;" horiz-adv-x="983" 
d="M612 1493q6 0 42 -11t56 -44t21 -68q0 -80 -59 -108l-328 -168l-74 73q23 25 244 279q37 47 98 47zM901 260q1 -131 -125 -207t-276 -76q-150 1 -262 61q-113 60 -156 185l205 62q16 -51 81 -77q66 -26 136 -26t120 25t50 64t-37 55q-71 31 -165 58t-140 49t-100 57
q-105 73 -105 205t110 205q111 73 235 73t221 -38t147 -104l-166 -116q-80 65 -162 65t-122 -24t-40 -63q0 -40 56 -67q38 -19 179 -59t228 -108q88 -68 88 -199z" />
    <glyph glyph-name="Scircumflex" unicode="&#x15c;" horiz-adv-x="1421" 
d="M522 1550l-96 60l197 305h180l196 -305l-96 -60l-190 222zM725 -29q-219 1 -393 97t-230 264l213 69q31 -92 149 -148t277 -56t263 77q63 48 63 114q0 124 -178 181q-80 27 -175 51q-96 24 -192 58t-176 79q-80 46 -129 127t-49 191q0 197 163 307t369 111
q365 0 529 -211l-176 -137q-49 59 -145 92t-216 33q-119 0 -203 -51q-83 -51 -83 -133t68 -137q68 -54 168 -79q101 -24 220 -60t220 -77t169 -129t68 -206t-58 -201q-99 -143 -342 -202q-100 -24 -194 -24z" />
    <glyph glyph-name="scircumflex" unicode="&#x15d;" horiz-adv-x="983" 
d="M309 1100l-96 59l197 305h180l196 -305l-96 -59l-190 221zM901 260q1 -131 -125 -207t-276 -76q-150 1 -262 61q-113 60 -156 185l205 62q16 -51 81 -77q66 -26 136 -26t120 25t50 64t-37 55q-71 31 -165 58t-140 49t-100 57q-105 73 -105 205t110 205q111 73 235 73
t221 -38t147 -104l-166 -116q-80 65 -162 65t-122 -24t-40 -63q0 -40 56 -67q38 -19 179 -59t228 -108q88 -68 88 -199z" />
    <glyph glyph-name="Scedilla" unicode="&#x15e;" horiz-adv-x="1421" 
d="M464 253q118 -56 277 -56t263 77q63 48 63 114q0 124 -178 181q-80 27 -175 51q-96 24 -192 58t-176 79q-80 46 -129 127t-49 191q0 197 163 307t369 111q365 0 529 -211l-176 -137q-49 59 -145 92t-216 33q-119 0 -203 -51q-83 -51 -83 -133t68 -137q68 -54 168 -79
q101 -24 220 -60t220 -77t169 -129t68 -200q0 -210 -166 -312q-166 -101 -356 -117l-15 -55q80 -8 134 -66t54 -152t-74 -162q-75 -66 -175 -66t-168 45t-86 131q2 0 70 24t75 31q18 -66 86 -65q33 0 58 18q24 18 24 49q0 78 -90 78l-28 -2l-62 96l10 101q-184 22 -322 114
t-186 238l213 69q31 -92 149 -148z" />
    <glyph glyph-name="scedilla" unicode="&#x15f;" horiz-adv-x="983" 
d="M504 182q70 0 120 25t50 64t-37 55q-71 31 -165 58t-140 49t-100 57q-105 73 -105 205t110 205q111 73 235 73t221 -38t147 -104l-166 -116q-80 65 -162 65t-122 -24t-40 -63q0 -40 56 -67q38 -19 104 -38q214 -60 302 -128q89 -69 89 -190q0 -120 -94 -194t-225 -92
l-19 -64q80 -8 134 -66q55 -58 55 -152t-75 -162q-75 -66 -175 -66t-168 45t-86 131q2 0 70 24t75 31q18 -66 86 -65q33 0 58 18q24 18 24 49q0 78 -90 78l-29 -2l-61 96l12 107q-242 39 -311 237l205 62q16 -51 81 -77q66 -26 136 -26z" />
    <glyph glyph-name="Scaron" unicode="&#x160;" horiz-adv-x="1421" 
d="M438 1862l99 59l194 -225l195 225l98 -59l-201 -312h-184zM725 -29q-219 1 -393 97t-230 264l213 69q31 -92 149 -148t277 -56t263 77q63 48 63 114q0 124 -178 181q-80 27 -175 51q-96 24 -192 58t-176 79q-80 46 -129 127t-49 191q0 197 163 307t369 111
q365 0 529 -211l-176 -137q-49 59 -145 92t-216 33q-119 0 -203 -51q-83 -51 -83 -133t68 -137q68 -54 168 -79q101 -24 220 -60t220 -77t169 -129t68 -206t-58 -201q-99 -143 -342 -202q-100 -24 -194 -24z" />
    <glyph glyph-name="scaron" unicode="&#x161;" horiz-adv-x="983" 
d="M203 1403l98 59l195 -225l194 225l98 -59l-200 -311h-185zM901 260q1 -131 -125 -207t-276 -76q-150 1 -262 61q-113 60 -156 185l205 62q16 -51 81 -77q66 -26 136 -26t120 25t50 64t-37 55q-71 31 -165 58t-140 49t-100 57q-105 73 -105 205t110 205q111 73 235 73
t221 -38t147 -104l-166 -116q-80 65 -162 65t-122 -24t-40 -63q0 -40 56 -67q38 -19 179 -59t228 -108q88 -68 88 -199z" />
    <glyph glyph-name="Tcommaaccent" unicode="&#x162;" horiz-adv-x="1091" 
d="M428 0v1241h-408v221h1051v-221h-407v-1241h-236zM293 -512v68l137 333h250l-254 -401h-133z" />
    <glyph glyph-name="tcommaaccent" unicode="&#x163;" horiz-adv-x="626" 
d="M61 754v196h123v293l74 74h145v-367h152v-196h-152v-541h84v-213h-208l-95 94v660h-123zM90 -512v68l137 333h250l-254 -401h-133z" />
    <glyph glyph-name="Tcaron" unicode="&#x164;" horiz-adv-x="1091" 
d="M252 1862l98 61l195 -227l194 227l99 -61l-201 -314h-184zM428 0v1241h-408v221h1051v-221h-407v-1241h-236z" />
    <glyph glyph-name="tcaron" unicode="&#x165;" horiz-adv-x="669" 
d="M61 754v196h123v293l74 74h145v-367h152v-196h-152v-541h84v-213h-208l-95 94v660h-123zM492 1135v67l137 334h252l-256 -401h-133z" />
    <glyph glyph-name="Tbar" unicode="&#x166;" horiz-adv-x="1091" 
d="M428 0v586h-252v205h252v450h-408v221h1051v-221h-407v-450h249v-205h-249v-586h-236z" />
    <glyph glyph-name="tbar" unicode="&#x167;" horiz-adv-x="626" 
d="M61 754v196h123v293l72 74h147v-367h152v-196h-152v-140h152v-196h-152v-205h84v-213h-211l-92 94v324h-123v196h123v140h-123z" />
    <glyph glyph-name="Utilde" unicode="&#x168;" horiz-adv-x="1509" 
d="M940 1815q58 0 102 69l109 -61q-6 -22 -28 -61q-76 -128 -210 -130q-71 0 -181 45t-150 45t-69 -17q-28 -17 -34 -36l-8 -18l-104 71q2 8 7 20q72 158 241 160q55 0 161 -43q106 -44 164 -44zM1100 594v868h225v-872q0 -305 -156 -462q-155 -157 -413 -157t-415 157
t-157 462v872h228v-868q0 -201 98 -299t246 -98t246 98t98 299z" />
    <glyph glyph-name="utilde" unicode="&#x169;" horiz-adv-x="1107" 
d="M376 1210q-40 0 -68 -17t-34 -36l-8 -18l-104 71q5 20 28 57q74 121 218 124q59 0 164 -44q104 -44 146 -44q75 0 109 53l11 16l108 -61q-6 -22 -28 -61q-76 -128 -209 -130q-70 0 -181 45q-112 45 -152 45zM555 -23q-172 0 -292 117t-120 320v536h224v-536
q0 -109 53 -167q53 -59 135 -59t135 58t53 168v536h222v-536q0 -203 -119 -320t-291 -117z" />
    <glyph glyph-name="Umacron" unicode="&#x16a;" horiz-adv-x="1509" 
d="M467 1630v164h575v-164h-575zM1100 594v868h225v-872q0 -305 -156 -462q-155 -157 -413 -157t-415 157t-157 462v872h228v-868q0 -201 98 -299t246 -98t246 98t98 299z" />
    <glyph glyph-name="umacron" unicode="&#x16b;" horiz-adv-x="1107" 
d="M268 1167v164h576v-164h-576zM555 -23q-172 0 -292 117t-120 320v536h224v-536q0 -109 53 -167q53 -59 135 -59t135 58t53 168v536h222v-536q0 -203 -119 -320t-291 -117z" />
    <glyph glyph-name="Ubreve" unicode="&#x16c;" horiz-adv-x="1509" 
d="M492 1763h163q0 -35 30 -57t71 -23q42 0 70 23t28 57h166q0 -94 -77 -154q-77 -61 -187 -61t-188 60q-76 60 -76 155zM1100 594v868h225v-872q0 -305 -156 -462q-155 -157 -413 -157t-415 157t-157 462v872h228v-868q0 -201 98 -299t246 -98t246 98t98 299z" />
    <glyph glyph-name="ubreve" unicode="&#x16d;" horiz-adv-x="1107" 
d="M291 1331h164q-1 -35 29 -57t71 -23q41 0 70 23t28 57h166q0 -94 -77 -154q-78 -61 -188 -61t-186 60t-77 155zM555 -23q-172 0 -292 117t-120 320v536h224v-536q0 -109 53 -167q53 -59 135 -59t135 58t53 168v536h222v-536q0 -203 -119 -320t-291 -117z" />
    <glyph glyph-name="Uring" unicode="&#x16e;" horiz-adv-x="1509" 
d="M647 1725q0 -43 32 -75t76 -32q45 0 77 32t32 76t-33 75q-33 32 -77 32t-75 -32q-32 -32 -32 -76zM756 1489q-96 1 -166 71t-70 165t70 165t166 70t166 -70t70 -165t-70 -165t-166 -71zM1100 594v868h225v-872q0 -305 -156 -462q-155 -157 -413 -157t-415 157t-157 462
v872h228v-868q0 -201 98 -299t246 -98t246 98t98 299z" />
    <glyph glyph-name="uring" unicode="&#x16f;" horiz-adv-x="1107" 
d="M446 1312q0 -44 32 -76t76 -32t77 32t33 76t-33 76t-77 32t-76 -32t-32 -76zM319 1312q0 95 70 165q70 69 166 69t166 -70t70 -164q0 -95 -70 -166t-166 -71t-166 71t-70 166zM555 -23q-172 0 -292 117t-120 320v536h224v-536q0 -109 53 -167q53 -59 135 -59t135 58
t53 168v536h222v-536q0 -203 -119 -320t-291 -117z" />
    <glyph glyph-name="Uhungarumlaut" unicode="&#x170;" horiz-adv-x="1509" 
d="M1140 1935q114 -1 112 -117q0 -58 -62 -96l-311 -186l-72 74q141 160 242 278q37 47 91 47zM784 1935q110 1 111 -117q0 -58 -61 -96l-310 -186l-73 74q23 25 243 278q36 47 90 47zM1100 594v868h225v-872q0 -305 -156 -462q-155 -157 -413 -157t-415 157t-157 462v872
h228v-868q0 -201 98 -299t246 -98t246 98t98 299z" />
    <glyph glyph-name="uhungarumlaut" unicode="&#x171;" horiz-adv-x="1107" 
d="M910 1493q112 1 112 -117q0 -58 -61 -96l-312 -186l-71 73q141 160 241 279q37 47 91 47zM555 1493q111 -1 111 -119q0 -58 -62 -94l-309 -186l-74 73q23 25 244 279q37 47 90 47zM555 -23q-172 0 -292 117t-120 320v536h224v-536q0 -109 53 -167q53 -59 135 -59t135 58
t53 168v536h222v-536q0 -203 -119 -320t-291 -117z" />
    <glyph glyph-name="Uogonek" unicode="&#x172;" horiz-adv-x="1509" 
d="M569 -238q0 106 103 213q-223 25 -356 180q-132 155 -132 435v872h228v-868q0 -201 98 -299t246 -98t245 98q98 98 99 299v868h225v-872q0 -284 -132 -438t-357 -177q-64 -87 -64 -165t90 -78l-43 -144q-250 16 -250 174z" />
    <glyph glyph-name="uogonek" unicode="&#x173;" horiz-adv-x="1107" 
d="M319 -238q0 117 119 232q-131 34 -213 144t-82 276v536h224v-536q0 -109 53 -167q53 -59 135 -59t135 58t53 168v536h222v-536q0 -195 -112 -312t-275 -125q-56 -89 -56 -167t90 -78l-43 -144q-250 16 -250 174z" />
    <glyph glyph-name="Wcircumflex" unicode="&#x174;" horiz-adv-x="1937" 
d="M776 1550l-96 60l197 305h180l196 -305l-96 -60l-190 222zM1917 1462l-514 -1462h-305l-129 401l-127 -401h-307l-515 1462h261l415 -1224l150 491l-232 733h228l125 -409l129 409h227l-233 -733l151 -491l416 1224h260z" />
    <glyph glyph-name="wcircumflex" unicode="&#x175;" horiz-adv-x="1388" 
d="M504 1114l-96 60l196 305h180l197 -305l-96 -60l-191 221zM352 0l-321 950h229l232 -708l106 305l-147 403h184l59 -172l60 172h184l-150 -403l109 -307l231 710h230l-320 -950h-237l-107 289l-106 -289h-236z" />
    <glyph glyph-name="Ycircumflex" unicode="&#x176;" horiz-adv-x="1341" 
d="M481 1550l-96 60l197 305h180l196 -305l-96 -60l-190 222zM553 0v610l-533 852h275l377 -612l375 612h274l-533 -852v-610h-235z" />
    <glyph glyph-name="ycircumflex" unicode="&#x177;" horiz-adv-x="1073" 
d="M336 1100l-96 59l196 305h180l197 -305l-96 -59l-191 221zM819 950h223l-518 -1462h-223l180 512h-90l-360 950h221l287 -743h22z" />
    <glyph glyph-name="Ydieresis" unicode="&#x178;" horiz-adv-x="1341" 
d="M299 1778q0 61 42 105t103 44q62 0 106 -44t44 -105q0 -60 -44 -104t-106 -44t-103 44q-42 44 -42 104zM739 1778q0 61 42 105q41 44 103 44t106 -44t44 -105q0 -60 -44 -104t-105 -44t-104 43q-42 44 -42 105zM553 0v610l-533 852h275l377 -612l375 612h274l-533 -852
v-610h-235z" />
    <glyph glyph-name="Zacute" unicode="&#x179;" horiz-adv-x="1327" 
d="M799 1948q8 0 43 -12t55 -44q20 -33 21 -67q0 -80 -60 -109l-328 -168l-73 74q23 25 243 279q37 47 99 47zM1225 0h-1123v213l809 1028h-780v221h1079v-213l-813 -1036h828v-213z" />
    <glyph glyph-name="zacute" unicode="&#x17a;" horiz-adv-x="940" 
d="M590 1493q8 0 43 -11t55 -44t21 -68q0 -80 -60 -108l-327 -168l-74 73q23 25 244 279q37 47 98 47zM858 209v-209h-776v166l479 588h-455v196h746v-168l-467 -573h473z" />
    <glyph glyph-name="Zdotaccent" unicode="&#x17b;" horiz-adv-x="1327" 
d="M522 1751q0 61 43 105t105 45q62 0 105 -44q44 -43 44 -105t-44 -105t-105 -43t-105 43q-43 43 -43 104zM1225 0h-1123v213l809 1028h-780v221h1079v-213l-813 -1036h828v-213z" />
    <glyph glyph-name="zdotaccent" unicode="&#x17c;" horiz-adv-x="940" 
d="M330 1266q0 61 43 105t104 44t105 -44t45 -105q0 -60 -44 -104q-43 -44 -105 -44t-105 44t-43 104zM858 209v-209h-776v166l479 588h-455v196h746v-168l-467 -573h473z" />
    <glyph glyph-name="Zcaron" unicode="&#x17d;" horiz-adv-x="1327" 
d="M422 1862l98 59l195 -225l194 225l99 -59l-201 -312h-184zM1225 0h-1123v213l809 1028h-780v221h1079v-213l-813 -1036h828v-213z" />
    <glyph glyph-name="zcaron" unicode="&#x17e;" horiz-adv-x="940" 
d="M217 1403l98 59l195 -225l195 225l98 -59l-201 -311h-184zM858 209v-209h-776v166l479 588h-455v196h746v-168l-467 -573h473z" />
    <glyph glyph-name="florin" unicode="&#x192;" horiz-adv-x="837" 
d="M236 -80v834h-125v196h125v183q0 209 113 312q114 103 275 103t275 -82v-45l-115 -114q-63 33 -139 32q-190 0 -190 -235v-154h331v-196h-331v-863q0 -209 -114 -312t-278 -103q-106 0 -206 45q4 10 67 188q59 -25 121 -24q191 -1 191 235z" />
    <glyph glyph-name="AEacute" unicode="&#x1fc;" horiz-adv-x="1888" 
d="M723 1210l-225 -618h450zM1776 1462v-221h-828l137 -373h646v-221h-564l156 -424h453v-223h-611l-135 369h-614l-135 -369h-240l537 1462h1198zM1169 1948q6 0 42 -12q37 -12 57 -44q20 -33 20 -67q0 -80 -59 -109l-328 -168l-74 74q23 25 244 279q37 47 98 47z" />
    <glyph glyph-name="aeacute" unicode="&#x1fd;" horiz-adv-x="1642" 
d="M979 1493q6 0 42 -11t56 -44t21 -68q0 -80 -60 -108l-327 -168l-74 73q23 25 244 279q37 47 98 47zM1136 778q-87 0 -153 -52t-82 -134h463q-10 80 -76 133t-152 53zM500 162q108 0 162 78q53 78 53 178h-246q-94 0 -132 -37t-38 -88t47 -91q46 -40 154 -40zM1120 182
q152 0 236 133l180 -98q-62 -104 -164 -172t-212 -68t-204 42q-96 42 -155 102q-115 -143 -305 -143t-296 86q-108 88 -108 233q0 214 222 274q75 20 173 21h218v55q1 61 -57 98t-132 37q-129 0 -176 -94l-184 84q84 201 372 201q207 0 314 -109q128 109 308 109t304 -140
t127 -335l-80 -80h-610q8 -104 79 -170q70 -66 150 -66z" />
    <glyph glyph-name="Oslashacute" unicode="&#x1fe;" horiz-adv-x="1712" 
d="M856 197q221 0 368 157q146 158 146 366t-121 357l-678 -794q125 -86 285 -86zM342 739q0 -211 127 -364l682 796q-129 94 -295 95q-222 0 -368 -158t-146 -369zM856 1493q248 0 447 -141l94 110h182l-172 -200q213 -219 213 -537t-224 -536t-540 -218q-244 0 -436 133
l-88 -104h-182l163 193q-221 221 -221 541t224 540q225 219 540 219zM981 1948q8 0 43 -12t55 -44q20 -33 21 -67q0 -80 -60 -109l-327 -168l-74 74q23 25 244 279q37 47 98 47z" />
    <glyph glyph-name="oslashacute" unicode="&#x1ff;" horiz-adv-x="1136" 
d="M569 760q-119 0 -197 -84t-77 -186q0 -102 45 -175l352 414q-55 31 -123 31zM569 188q115 0 194 85t79 189t-47 175l-355 -416q61 -33 129 -33zM569 971q145 0 265 -78l47 57h182l-125 -145q127 -141 127 -340t-146 -343t-350 -145q-145 0 -268 78l-47 -55h-182l125 145
q-125 141 -125 340t146 343t351 143zM680 1493q8 0 43 -11t55 -44t21 -68q0 -80 -60 -108l-327 -168l-74 73q23 25 244 279q37 47 98 47z" />
    <glyph glyph-name="Scommaaccent" unicode="&#x218;" horiz-adv-x="1421" 
d="M725 -29q-219 1 -393 97t-230 264l213 69q31 -92 149 -148t277 -56t263 77q63 48 63 114q0 124 -178 181q-80 27 -175 51q-96 24 -192 58t-176 79q-80 46 -129 127t-49 191q0 197 163 307t369 111q365 0 529 -211l-176 -137q-49 59 -145 92t-216 33q-119 0 -203 -51
q-83 -51 -83 -133t68 -137q68 -54 168 -79q101 -24 220 -60t220 -77t169 -129t68 -206t-58 -201q-99 -143 -342 -202q-100 -24 -194 -24zM449 -512v68l137 333h252l-256 -401h-133z" />
    <glyph glyph-name="scommaaccent" unicode="&#x219;" horiz-adv-x="983" 
d="M901 260q1 -131 -125 -207t-276 -76q-150 1 -262 61q-113 60 -156 185l205 62q16 -51 81 -77q66 -26 136 -26t120 25t50 64t-37 55q-71 31 -165 58t-140 49t-100 57q-105 73 -105 205t110 205q111 73 235 73t221 -38t147 -104l-166 -116q-80 65 -162 65t-122 -24t-40 -63
q0 -40 56 -67q38 -19 179 -59t228 -108q88 -68 88 -199zM219 -512v68l137 333h250l-254 -401h-133z" />
    <glyph glyph-name="circumflex" unicode="&#x2c6;" horiz-adv-x="591" 
d="M104 1114l-96 60l197 305h180l197 -305l-97 -60l-190 221z" />
    <glyph glyph-name="caron" unicode="&#x2c7;" horiz-adv-x="583" 
d="M2 1862l98 61l195 -227l194 227l99 -61l-201 -314h-184z" />
    <glyph glyph-name="breve" unicode="&#x2d8;" horiz-adv-x="602" 
d="M37 1585h164q-1 -35 29 -57t71 -23q41 0 70 23t28 57h166q0 -94 -77 -154q-78 -61 -188 -61t-186 60t-77 155z" />
    <glyph glyph-name="dotaccent" unicode="&#x2d9;" horiz-adv-x="436" 
d="M70 1266q0 61 43 105t104 44t105 -44t45 -105q0 -60 -44 -104q-43 -44 -105 -44t-105 44t-43 104z" />
    <glyph glyph-name="ring" unicode="&#x2da;" horiz-adv-x="544" 
d="M164 1570q0 -44 32 -76t76 -32t76 32q33 32 33 76t-33 76t-77 32q-43 0 -75 -32t-32 -76zM37 1570q0 95 69 165q70 69 166 69t166 -70t70 -164q0 -95 -70 -166t-166 -71t-166 71q-69 71 -69 166z" />
    <glyph glyph-name="ogonek" unicode="&#x2db;" horiz-adv-x="428" 
d="M74 -238q0 70 50 148t124 127l92 -29v-33q-63 -88 -64 -161q1 -82 91 -82l-43 -144q-250 16 -250 174z" />
    <glyph glyph-name="tilde" unicode="&#x2dc;" horiz-adv-x="882" 
d="M273 1210q-41 0 -69 -17t-36 -36l-6 -18l-105 71q4 16 27 55q24 39 49 63t71 43t102 19t162 -43q106 -44 146 -44q42 0 70 17t37 36l12 16l109 -61q-6 -22 -32 -66q-70 -123 -214 -125q-60 0 -170 45t-153 45z" />
    <glyph glyph-name="hungarumlaut" unicode="&#x2dd;" horiz-adv-x="950" 
d="M771 1493q112 1 112 -117q0 -58 -62 -96l-311 -186l-72 73q141 160 242 279q37 47 91 47zM416 1493q53 0 82 -30q28 -31 28 -89t-61 -94l-309 -186l-74 73q23 25 244 279q37 47 90 47z" />
    <glyph glyph-name="pi" unicode="&#x3c0;" horiz-adv-x="1103" 
d="M715 768h-324v-768h-201v768h-98v182h909v-182h-86v-614h60v-154h-195l-65 68v700z" />
    <glyph glyph-name="Wgrave" unicode="&#x1e80;" horiz-adv-x="1937" 
d="M1194 1622l-72 -74q-297 154 -327 168q-61 31 -61 112t77 109q35 10 43 11q61 0 98 -47q101 -119 242 -279zM1917 1462l-514 -1462h-305l-129 401l-127 -401h-307l-515 1462h261l415 -1224l150 491l-232 733h228l125 -409l129 409h227l-233 -733l151 -491l416 1224h260z
" />
    <glyph glyph-name="wgrave" unicode="&#x1e81;" horiz-adv-x="1388" 
d="M463 1374q0 80 78 109q37 10 43 10q61 0 98 -47q101 -119 242 -279l-72 -73q-297 154 -328 168q-61 32 -61 112zM352 0l-321 950h229l232 -708l106 305l-147 403h184l59 -172l60 172h184l-150 -403l109 -307l231 710h230l-320 -950h-237l-107 289l-106 -289h-236z" />
    <glyph glyph-name="Wacute" unicode="&#x1e82;" horiz-adv-x="1937" 
d="M1087 1948q6 0 42 -12q37 -12 57 -44q20 -33 20 -67q0 -80 -59 -109l-328 -168l-74 74q23 25 244 279q37 47 98 47zM1917 1462l-514 -1462h-305l-129 401l-127 -401h-307l-515 1462h261l415 -1224l150 491l-232 733h228l125 -409l129 409h227l-233 -733l151 -491
l416 1224h260z" />
    <glyph glyph-name="wacute" unicode="&#x1e83;" horiz-adv-x="1388" 
d="M805 1493q6 0 42 -11t56 -44t21 -68q0 -80 -60 -108l-327 -168l-74 73q23 25 244 279q37 47 98 47zM352 0l-321 950h229l232 -708l106 305l-147 403h184l59 -172l60 172h184l-150 -403l109 -307l231 710h230l-320 -950h-237l-107 289l-106 -289h-236z" />
    <glyph glyph-name="Wdieresis" unicode="&#x1e84;" horiz-adv-x="1937" 
d="M598 1749q0 61 42 105t103 44t105 -44t45 -105q0 -61 -44 -104q-43 -43 -105 -43t-104 43t-42 104zM1038 1749q0 61 42 105t104 44t105 -44q44 -44 44 -105t-44 -104t-105 -43t-104 43q-42 43 -42 104zM1917 1462l-514 -1462h-305l-129 401l-127 -401h-307l-515 1462h261
l415 -1224l150 491l-232 733h228l125 -409l129 409h227l-233 -733l151 -491l416 1224h260z" />
    <glyph glyph-name="wdieresis" unicode="&#x1e85;" horiz-adv-x="1388" 
d="M326 1266q0 61 42 105t103 44t105 -44t45 -105q0 -60 -44 -104q-43 -44 -105 -44t-104 44t-42 104zM766 1266q0 61 42 105t103 44t105 -44t45 -105q0 -60 -44 -104q-43 -44 -105 -44t-104 44t-42 104zM352 0l-321 950h229l232 -708l106 305l-147 403h184l59 -172l60 172
h184l-150 -403l109 -307l231 710h230l-320 -950h-237l-107 289l-106 -289h-236z" />
    <glyph glyph-name="Ygrave" unicode="&#x1ef2;" horiz-adv-x="1341" 
d="M897 1622l-72 -74q-297 154 -327 168q-62 31 -62 112t78 109q35 10 43 11q61 0 98 -47q101 -119 242 -279zM553 0v610l-533 852h275l377 -612l375 612h274l-533 -852v-610h-235z" />
    <glyph glyph-name="ygrave" unicode="&#x1ef3;" horiz-adv-x="1073" 
d="M297 1374q0 80 78 109q37 10 43 10q61 0 98 -47q101 -119 242 -279l-72 -73q-297 154 -328 168q-61 32 -61 112zM819 950h223l-518 -1462h-223l180 512h-90l-360 950h221l287 -743h22z" />
    <glyph glyph-name="figuredash" unicode="&#x2012;" horiz-adv-x="1052" 
d="M82 573v197h889v-197h-889z" />
    <glyph glyph-name="endash" unicode="&#x2013;" horiz-adv-x="1150" 
d="M82 457v196h987v-196h-987z" />
    <glyph glyph-name="emdash" unicode="&#x2014;" horiz-adv-x="1843" 
d="M82 457v196h1679v-196h-1679z" />
    <glyph glyph-name="quoteleft" unicode="&#x2018;" horiz-adv-x="462" 
d="M463 1536l-205 -541h-258l285 541h178z" />
    <glyph glyph-name="quoteright" unicode="&#x2019;" horiz-adv-x="362" 
d="M0 995l207 541h256l-285 -541h-178z" />
    <glyph glyph-name="quotesinglbase" unicode="&#x201a;" horiz-adv-x="432" 
d="M-31 -338l207 541h256l-285 -541h-178z" />
    <glyph glyph-name="quotedblleft" unicode="&#x201c;" horiz-adv-x="739" 
d="M827 1540l-206 -541h-256l284 541h178zM463 1540l-207 -541h-256l285 541h178z" />
    <glyph glyph-name="quotedblright" unicode="&#x201d;" horiz-adv-x="698" 
d="M0 999l207 541h256l-285 -541h-178zM365 999l206 541h256l-284 -541h-178z" />
    <glyph glyph-name="quotedblbase" unicode="&#x201e;" horiz-adv-x="798" 
d="M336 -338l207 541h256l-285 -541h-178zM-31 -338l207 541h256l-285 -541h-178z" />
    <glyph glyph-name="dagger" unicode="&#x2020;" horiz-adv-x="991" 
d="M102 973v141h314v348h159v-348h314v-141h-314v-973h-159v973h-314z" />
    <glyph glyph-name="daggerdbl" unicode="&#x2021;" horiz-adv-x="1011" 
d="M113 973v141h313v348h160v-348h313v-141h-313v-484h313v-141h-313v-348h-160v348h-313v141h313v484h-313z" />
    <glyph glyph-name="bullet" unicode="&#x2022;" horiz-adv-x="702" 
d="M102 531q0 103 73 177t176 74t176 -74t73 -178q0 -102 -73 -175t-176 -73t-176 74q-73 72 -73 175z" />
    <glyph glyph-name="ellipsis" unicode="&#x2026;" horiz-adv-x="1755" 
d="M1331 131q0 66 47 114t113 48t114 -48t48 -114t-48 -113t-114 -47t-113 47t-47 113zM717 131q0 66 47 114t113 48q65 0 113 -48t48 -114t-48 -113t-114 -47t-112 47q-47 47 -47 113zM102 131q0 66 48 114t112 48q66 0 114 -48t48 -114t-48 -113t-114 -47t-113 47t-47 113
z" />
    <glyph glyph-name="perthousand" unicode="&#x2030;" horiz-adv-x="1681" 
d="M377 1346q-59 0 -101 -43t-40 -103q0 -60 41 -102q41 -43 99 -43t98 43t40 102q0 58 -39 102t-98 44zM1335 111q61 0 104 45q42 45 42 108q0 62 -41 108q-40 46 -104 46t-105 -45t-41 -109t42 -108q42 -45 103 -45zM902 111q62 0 104 45q41 45 41 108q0 62 -41 108
q-42 46 -104 46t-104 -45t-42 -109t42 -108q42 -45 104 -45zM376 1485q118 0 201 -82t83 -203t-84 -204q-82 -83 -200 -83t-202 83t-84 204t84 203t202 82zM61 0l967 1462h189l-969 -1462h-187zM908 549q124 0 210 -100q84 100 209 100t209 -82t84 -203t-84 -204t-209 -83
t-209 101q-86 -100 -210 -100t-208 82q-84 83 -84 204t84 203t208 82z" />
    <glyph glyph-name="guilsinglleft" unicode="&#x2039;" horiz-adv-x="659" 
d="M578 92h-154l-363 424l363 424h154v-68l-246 -356l246 -356v-68z" />
    <glyph glyph-name="guilsinglright" unicode="&#x203a;" horiz-adv-x="659" 
d="M82 940h154l362 -424l-362 -424h-154v68l246 356l-246 356v68z" />
    <glyph glyph-name="fraction" unicode="&#x2044;" horiz-adv-x="1329" 
d="M31 0v20l1089 1442h178v-22l-1089 -1440h-178z" />
    <glyph glyph-name="zerosuperior" unicode="&#x2070;" horiz-adv-x="735" 
d="M369 805q82 1 123 69t40 162q0 94 -40 164q-41 70 -123 70t-124 -70t-42 -164t42 -162t124 -69zM369 1432q153 0 235 -117t82 -279t-82 -278t-236 -117q-154 0 -236 117q-83 116 -83 278t83 279t237 117z" />
    <glyph glyph-name="foursuperior" unicode="&#x2074;" horiz-adv-x="667" 
d="M410 891v338l-211 -338h211zM410 653v115h-390v76l369 575h193v-528h69v-123h-69v-115h-172z" />
    <glyph glyph-name="fivesuperior" unicode="&#x2075;" horiz-adv-x="606" 
d="M260 641q-78 0 -142 23t-89 45l-27 22l88 125q68 -57 168 -57q49 1 86 27t37 73t-38 74q-37 27 -95 27t-98 -21l-101 104l51 336h402v-143h-279l-20 -135q29 14 82 14q111 0 189 -72q78 -73 77 -187q0 -114 -77 -184t-214 -71z" />
    <glyph glyph-name="sixsuperior" unicode="&#x2076;" horiz-adv-x="649" 
d="M207 901q1 -43 31 -75t76 -31q46 -1 76 31t30 75t-30 74t-77 31t-77 -31t-29 -74zM338 1145q110 0 176 -72q66 -73 66 -181t-77 -180t-190 -71q-113 0 -197 72t-83 179q0 107 92 247l182 280h199l-189 -274h21z" />
    <glyph glyph-name="sevensuperior" unicode="&#x2077;" horiz-adv-x="602" 
d="M35 1169v250h592v-133l-406 -633h-186l399 623h-254v-107h-145z" />
    <glyph glyph-name="eightsuperior" unicode="&#x2078;" horiz-adv-x="620" 
d="M311 1133q35 -1 59 23t24 56t-24 56q-24 22 -59 22t-59 -22t-23 -56q-1 -33 23 -56t59 -23zM311 985q-45 0 -75 -28q-30 -29 -29 -69t31 -70t74 -30t75 30t31 71t-31 69t-76 27zM312 641q-116 0 -198 71t-83 173q0 127 114 184q-84 49 -84 145t74 158t177 62t177 -62
t74 -157q0 -94 -82 -146q111 -57 111 -184q0 -102 -82 -173t-198 -71z" />
    <glyph glyph-name="ninesuperior" unicode="&#x2079;" horiz-adv-x="649" 
d="M455 1174q0 42 -31 74t-77 32t-76 -32q-29 -32 -29 -74t30 -74q30 -31 76 -31q47 0 77 31t30 74zM315 920q-85 0 -159 74t-74 180t78 183t190 77t195 -72q84 -72 84 -179t-92 -247l-183 -283h-198l180 267h-21z" />
    <glyph glyph-name="zeroinferior" unicode="&#x2080;" horiz-adv-x="735" 
d="M369 154q82 0 123 68t40 163q0 94 -40 164q-41 69 -123 69t-124 -70t-42 -163q0 -95 42 -163t124 -68zM369 780q153 0 235 -116t82 -279q0 -162 -82 -279q-82 -116 -236 -116t-236 116q-83 116 -83 279t83 279t237 116z" />
    <glyph glyph-name="oneinferior" unicode="&#x2081;" horiz-adv-x="540" 
d="M113 623v143h252v-623h81v-143h-352v143h94v480h-75z" />
    <glyph glyph-name="twoinferior" unicode="&#x2082;" horiz-adv-x="608" 
d="M41 525q-1 107 65 177t184 70t188 -71t71 -165q0 -94 -92 -198l-166 -188h260v-150h-494v121l262 287q72 78 72 118t-25 68q-26 29 -75 29t-72 -25q-23 -24 -23 -66t29 -71l-102 -105q-82 63 -82 169z" />
    <glyph glyph-name="threeinferior" unicode="&#x2083;" horiz-adv-x="628" 
d="M308 147q46 0 79 31t33 70q0 40 -33 68t-82 28t-78 -8l-45 104l168 185h-239v143h432v-129l-168 -178q84 -3 147 -67q64 -64 64 -172t-80 -170t-209 -62q-79 0 -145 36t-93 87l107 102q18 -31 57 -49t85 -19z" />
    <glyph glyph-name="fourinferior" unicode="&#x2084;" horiz-adv-x="667" 
d="M410 238v337l-211 -337h211zM410 0v115h-390v75l369 576h193v-528h69v-123h-69v-115h-172z" />
    <glyph glyph-name="fiveinferior" unicode="&#x2085;" horiz-adv-x="606" 
d="M260 -10q-78 0 -142 22t-89 45l-27 23l88 125q68 -57 168 -58q49 0 86 27t37 74t-38 74q-37 26 -95 26t-98 -20l-101 104l51 336h402v-143h-279l-20 -136q29 14 82 15q111 0 189 -72t77 -186q0 -114 -77 -186q-77 -70 -214 -70z" />
    <glyph glyph-name="sixinferior" unicode="&#x2086;" horiz-adv-x="649" 
d="M207 250q1 -43 31 -75t76 -32t76 32t30 75t-30 74q-30 30 -77 30t-77 -30t-29 -74zM338 494q110 0 176 -72t66 -180t-77 -181q-77 -71 -190 -71t-197 72t-83 178q0 108 92 247l182 281h199l-189 -274h21z" />
    <glyph glyph-name="seveninferior" unicode="&#x2087;" horiz-adv-x="602" 
d="M35 516v250h592v-133l-406 -633h-186l399 623h-254v-107h-145z" />
    <glyph glyph-name="eightinferior" unicode="&#x2088;" horiz-adv-x="620" 
d="M311 481q35 0 59 24q24 25 24 57t-24 54t-59 23q-35 0 -59 -23q-24 -24 -23 -56q-1 -32 23 -56t59 -23zM311 334q-45 0 -75 -28t-29 -68t31 -71q30 -30 74 -30t75 30t31 71q0 40 -31 68t-76 28zM592 233q0 -103 -82 -173t-198 -70t-198 70t-83 173q0 127 114 185
q-84 49 -84 145q0 95 74 157t177 62t177 -62t74 -156t-82 -146q111 -57 111 -185z" />
    <glyph glyph-name="nineinferior" unicode="&#x2089;" horiz-adv-x="649" 
d="M347 627q-46 0 -76 -32q-29 -32 -29 -75t30 -74q30 -30 76 -30q47 0 77 30t30 74q0 43 -31 75t-77 32zM315 266q-85 0 -159 74t-74 180t78 184q78 76 190 76t195 -72q84 -72 84 -178q0 -108 -92 -247l-183 -283h-198l180 266h-21z" />
    <glyph glyph-name="Euro" unicode="&#x20ac;" horiz-adv-x="1232" 
d="M92 739v170h107q51 233 220 379t462 146q160 0 290 -54l-94 -200q-70 37 -196 37q-352 0 -451 -308h397v-170h-426v-77h426v-168h-397q96 -305 451 -306q119 0 204 27l82 -192q-131 -51 -286 -52q-291 1 -461 145t-221 378h-107v168h84v77h-84z" />
    <glyph glyph-name="litre" unicode="&#x2113;" horiz-adv-x="763" 
d="M362 1257v-780q104 94 105 590q0 227 -21 272q-14 35 -45 35q-39 0 -39 -117zM205 238v41q-20 -8 -39 -13l-23 74q20 8 62 29v936q0 244 201 243q215 0 215 -475q0 -227 -36 -375t-85 -213q-49 -66 -138 -135v-157q0 -76 62 -76q35 0 68 18l12 4l61 -94q-16 -29 -64 -47
t-106 -18q-94 0 -142 60t-48 198z" />
    <glyph glyph-name="trademark" unicode="&#x2122;" horiz-adv-x="1617" 
d="M264 608v695h-223v159h614v-159h-225v-695h-166zM705 608v854h151l264 -432l262 432h154v-854h-166v514l-158 -256h-184l-158 256v-514h-165z" />
    <glyph glyph-name="Omega" unicode="&#x2126;" horiz-adv-x="1478" 
d="M68 0v223h321v15q-151 88 -239 240t-89 339q0 287 199 481q200 194 480 195q280 0 479 -195t198 -481q0 -186 -89 -339t-238 -240v-15h321v-223h-553v371q147 47 235 175q87 128 87 271q0 185 -126 319t-314 134t-315 -133q-126 -133 -126 -320q0 -143 87 -271t235 -175
v-371h-553z" />
    <glyph glyph-name="estimated" unicode="&#x212e;" horiz-adv-x="1177" 
d="M588 897q-148 0 -254 -94v-295h510v299q-108 90 -256 90zM334 432v-282q108 -97 242 -97q134 1 229 63q94 62 145 169l80 -35q-61 -123 -180 -198t-260 -75q-205 1 -351 145t-147 353q0 209 146 352t351 143q204 0 350 -142q146 -144 146 -353l-2 -43h-749z" />
    <glyph glyph-name="onethird" unicode="&#x2153;" horiz-adv-x="1478" 
d="M113 1276v143h252v-622h81v-144h-352v144h94v479h-75zM1180 147q46 0 80 31q33 31 32 70q0 40 -32 68t-82 28t-78 -8l-45 104l168 185h-240v143h432v-129l-168 -178q83 -3 147 -67t64 -172t-80 -170t-209 -62q-79 0 -145 36t-92 87l106 102q18 -31 57 -49t85 -19zM92 0
v20l1090 1442h178v-22l-1090 -1440h-178z" />
    <glyph glyph-name="twothirds" unicode="&#x2154;" horiz-adv-x="1488" 
d="M1176 147q46 0 79 31t33 70q0 40 -33 68t-82 28t-77 -8l-45 104l168 185h-240v143h432v-129l-168 -178q83 -3 147 -67t64 -172t-80 -170t-209 -62q-79 0 -145 36t-92 87l106 102q18 -31 57 -49t85 -19zM290 1425q118 -1 188 -71t71 -164q0 -94 -92 -199l-166 -188h260
v-150h-494v121l262 287q72 78 72 118q1 41 -25 69t-75 28t-72 -25t-23 -67t29 -70l-102 -104q-82 62 -82 168t65 177q66 70 184 70zM137 0v20l1090 1442h178v-22l-1090 -1440h-178z" />
    <glyph glyph-name="oneeighth" unicode="&#x215b;" horiz-adv-x="1474" 
d="M1145 481q35 0 59 24q24 25 23 57q0 32 -24 54q-25 22 -59 23q-34 0 -58 -23q-24 -24 -24 -56t24 -56t59 -23zM1146 137q44 0 75 30t30 71q-1 40 -31 68t-75 28t-75 -28t-30 -68t31 -71q31 -30 75 -30zM1146 -10q-116 0 -199 70t-83 173q0 127 115 185q-84 49 -84 145
q0 95 74 157t177 62t177 -62t74 -156t-82 -146q111 -57 110 -185q1 -103 -81 -173t-198 -70zM113 1276v143h252v-622h81v-144h-352v144h94v479h-75zM92 0v20l1090 1442h178v-22l-1090 -1440h-178z" />
    <glyph glyph-name="threeeighths" unicode="&#x215c;" horiz-adv-x="1429" 
d="M1145 481q35 0 59 24q24 25 23 57q0 32 -24 54q-25 22 -59 23q-34 0 -58 -23q-24 -24 -24 -56t24 -56t59 -23zM1146 137q44 0 75 30t30 71q-1 40 -31 68t-75 28t-75 -28t-30 -68t31 -71q31 -30 75 -30zM1146 -10q-116 0 -199 70t-83 173q0 127 115 185q-84 49 -84 145
q0 95 74 157t177 62t177 -62t74 -156t-82 -146q111 -57 110 -185q1 -103 -81 -173t-198 -70zM92 0v20l1090 1442h178v-22l-1090 -1440h-178zM308 799q46 1 79 31t33 69t-33 68t-82 29t-78 -9l-45 105l168 184h-239v143h432v-129l-168 -178q84 -4 147 -68q64 -64 64 -170
q0 -108 -80 -170t-209 -63q-79 0 -145 36t-93 87l107 102q18 -31 57 -49t85 -18z" />
    <glyph glyph-name="fiveeighths" unicode="&#x215d;" horiz-adv-x="1460" 
d="M299 641q-79 0 -143 23t-90 45l-25 22l88 125q68 -57 168 -57q49 1 86 27t37 73t-38 74t-96 27t-98 -21l-100 104l51 336h402v-143h-279l-20 -135q29 14 82 14q110 0 188 -72q78 -73 78 -187t-77 -184t-214 -71zM1176 481q34 0 58 24q24 25 24 57t-24 54t-58 23
q-34 0 -59 -23q-23 -24 -23 -56t24 -56t58 -23zM1177 137q45 0 75 30t30 71q0 40 -31 68t-75 28t-75 -28q-30 -28 -30 -68t31 -71q31 -30 75 -30zM1177 -10q-116 0 -199 70t-83 173q0 127 115 185q-84 49 -84 145t73 158q73 61 177 61t178 -62t74 -156t-82 -146
q111 -57 110 -185q0 -103 -82 -173t-197 -70zM123 0v20l1089 1442h179v-22l-1090 -1440h-178z" />
    <glyph glyph-name="seveneighths" unicode="&#x215e;" horiz-adv-x="1429" 
d="M1145 481q35 0 59 24q24 25 23 57q0 32 -24 54q-25 22 -59 23q-34 0 -58 -23q-24 -24 -24 -56t24 -56t59 -23zM1146 137q44 0 75 30t30 71q-1 40 -31 68t-75 28t-75 -28t-30 -68t31 -71q31 -30 75 -30zM1146 -10q-116 0 -199 70t-83 173q0 127 115 185q-84 49 -84 145
q0 95 74 157t177 62t177 -62t74 -156t-82 -146q111 -57 110 -185q1 -103 -81 -173t-198 -70zM92 0v20l1090 1442h178v-22l-1090 -1440h-178zM150 1231v188h661v-133l-475 -633h-195l469 623h-315v-45h-145z" />
    <glyph glyph-name="partialdiff" unicode="&#x2202;" horiz-adv-x="1179" 
d="M568 770q-116 0 -212 -97q-94 -97 -94 -247t74 -217q74 -68 200 -68t230 125t127 301q-39 83 -124 143t-201 60zM475 1497q254 1 423 -193t169 -552t-162 -565q-162 -208 -393 -207q-199 0 -304 126q-106 126 -106 322q0 195 130 340t321 145q115 0 206 -39t124 -75
l32 -39v31q0 255 -134 413t-298 158q-77 0 -145 -14t-96 -29l-31 -14l-53 116q115 76 317 76z" />
    <glyph glyph-name="uni2206" unicode="&#x2206;" horiz-adv-x="1515" 
d="M758 1239l-420 -1016h840zM1495 0h-1475v74l590 1388h293l592 -1388v-74z" />
    <glyph glyph-name="product" unicode="&#x220f;" horiz-adv-x="1325" 
d="M82 1262v200h1161v-200h-123v-1262h-213v1262h-489v-1262h-213v1262h-123z" />
    <glyph glyph-name="summation" unicode="&#x2211;" horiz-adv-x="1284" 
d="M1020 201v123h203v-324h-1002v244l418 487l-418 486v245h1002v-323h-203v123h-563l383 -443v-172l-383 -446h563z" />
    <glyph glyph-name="radical" unicode="&#x221a;" horiz-adv-x="1153" 
d="M20 809v141h308l260 -1212l407 1724h158v-76l-459 -1898h-213l-293 1321h-168z" />
    <glyph glyph-name="infinity" unicode="&#x221e;" horiz-adv-x="1316" 
d="M944 455q66 -1 100 35t35 88q0 52 -35 88q-35 37 -100 36q-105 1 -199 -124q96 -123 199 -123zM373 455q104 0 198 125q-96 123 -198 122q-66 0 -101 -36q-34 -36 -34 -86q0 -51 34 -88t101 -37zM946 299q-160 0 -289 150q-129 -150 -274 -150t-223 76t-78 204
q0 127 78 203t222 76t277 -151q129 152 287 151q133 0 211 -76t78 -204t-78 -203q-78 -76 -211 -76z" />
    <glyph glyph-name="integral" unicode="&#x222b;" horiz-adv-x="675" 
d="M418 -195q0 -165 -106 -247t-251 -82q-37 0 -71 6l14 133h33q221 0 221 190v1414q0 165 106 247t250 82q37 0 72 -6l-14 -133h-33q-221 0 -221 -190v-1414z" />
    <glyph glyph-name="approxequal" unicode="&#x2248;" horiz-adv-x="1046" 
d="M102 248q0 120 72 186t160 66t198 -49t148 -49q36 0 60 23q24 24 24 64h180q0 -113 -63 -185t-160 -71q-63 1 -191 51t-186 50q-74 0 -74 -86h-168zM102 606q0 120 72 186t160 66t198 -49t148 -49q36 0 60 24t24 64h180q0 -112 -63 -184t-160 -72q-63 0 -191 50t-186 50
q-74 0 -74 -86h-168z" />
    <glyph glyph-name="notequal" unicode="&#x2260;" horiz-adv-x="1093" 
d="M102 698v197h539l125 213h190l-122 -213h157v-197h-272l-131 -227h403v-197h-516l-123 -213h-192l123 213h-181v197h295l129 227h-424z" />
    <glyph glyph-name="lessequal" unicode="&#x2264;" horiz-adv-x="1011" 
d="M930 207l-889 463v127l889 460v-200l-654 -324l654 -323v-203zM930 166v-166h-889v166h889z" />
    <glyph glyph-name="greaterequal" unicode="&#x2265;" horiz-adv-x="1011" 
d="M971 670l-889 -463v203l653 323l-653 324v200l889 -460v-127zM82 0v166h889v-166h-889z" />
    <glyph glyph-name="lozenge" unicode="&#x25ca;" horiz-adv-x="940" 
d="M242 731l229 -461l229 461l-229 457zM879 731l-365 -731h-88l-365 731l369 731h84z" />
    <glyph glyph-name="a.alt" unicode="&#x2702;" horiz-adv-x="1241" 
d="M577 188q117 0 197 83t80 204t-80 204t-198 83t-199 -83q-82 -83 -82 -204t82 -204t200 -83zM561 -23q-205 1 -347 147t-142 351t142 351t345 147q156 0 279 -115l92 92h125v-737h84v-213h-209l-92 92q-109 -115 -277 -115z" />
    <glyph glyph-name="apple" unicode="&#xf8ff;" horiz-adv-x="1044" 
d="M553 1319h256l-234 -291q105 -6 195 -58t145 -139q-71 -27 -115 -90t-44 -144t49 -144t127 -86q-56 -101 -158 -159t-221 -58q-184 0 -312 126t-128 310t128 314t312 130v289z" />
    <glyph glyph-name="zero.slash" horiz-adv-x="1363" 
d="M317 682q0 -224 111 -367l360 883q-59 18 -106 19q-180 0 -272 -155q-92 -156 -93 -380zM682 188q123 0 208 80q157 148 157 419t-123 417l-365 -893q57 -23 123 -23zM682 1434q193 0 330 -109q258 -205 259 -623q1 -417 -259 -622q-137 -109 -330 -109q-145 1 -261 63
q-216 116 -293 399q-36 128 -36 269q0 291 142 502q71 104 187 167t261 63z" />
    <glyph glyph-name="one.alt" horiz-adv-x="595" 
d="M184 0v1237l228 213v-1450h-228z" />
    <glyph glyph-name="w.alt" 
d="M1272 950h229l-262 -950h-283l-190 623l-188 -623h-283l-264 950h229l182 -717l222 717h204l224 -717z" />
    <glyph glyph-name="onesuperior.alt" horiz-adv-x="434" 
d="M113 653v613l184 174v-787h-184z" />
    <glyph glyph-name="oneinferior.alt" horiz-adv-x="434" 
d="M113 0v612l184 174v-786h-184z" />
    <glyph glyph-name="aacute.alt" horiz-adv-x="1241" 
d="M684 1493q8 0 43 -11t55 -44t21 -68q0 -80 -60 -108l-327 -168l-74 73q23 25 244 279q37 47 98 47zM577 188q117 0 197 83t80 204t-80 204t-198 83t-199 -83q-82 -83 -82 -204t82 -204t200 -83zM561 -23q-205 1 -347 147t-142 351t142 351t345 147q156 0 279 -115l92 92
h125v-737h84v-213h-209l-92 92q-109 -115 -277 -115z" />
    <glyph glyph-name="abreve.alt" horiz-adv-x="1241" 
d="M307 1331h164q0 -35 30 -57q31 -22 71 -23q40 0 69 23t29 57h166q0 -94 -77 -154q-77 -61 -188 -61t-187 60t-77 155zM577 188q117 0 197 83t80 204t-80 204t-198 83t-199 -83q-82 -83 -82 -204t82 -204t200 -83zM561 -23q-205 1 -347 147t-142 351t142 351t345 147
q156 0 279 -115l92 92h125v-737h84v-213h-209l-92 92q-109 -115 -277 -115z" />
    <glyph glyph-name="acircumflex.alt" horiz-adv-x="1241" 
d="M362 1098l-96 59l197 305h180l197 -305l-97 -59l-190 221zM577 188q117 0 197 83t80 204t-80 204t-198 83t-199 -83q-82 -83 -82 -204t82 -204t200 -83zM561 -23q-205 1 -347 147t-142 351t142 351t345 147q156 0 279 -115l92 92h125v-737h84v-213h-209l-92 92
q-109 -115 -277 -115z" />
    <glyph glyph-name="adieresis.alt" horiz-adv-x="1241" 
d="M215 1266q0 61 42 105t103 44q62 0 106 -44t44 -105q0 -60 -44 -104t-106 -44t-103 44q-42 44 -42 104zM655 1266q0 61 42 105q41 44 103 44t106 -44t44 -105q0 -60 -44 -104t-105 -44t-104 43q-42 44 -42 105zM577 188q117 0 197 83t80 204t-80 204t-198 83t-199 -83
q-82 -83 -82 -204t82 -204t200 -83zM561 -23q-205 1 -347 147t-142 351t142 351t345 147q156 0 279 -115l92 92h125v-737h84v-213h-209l-92 92q-109 -115 -277 -115z" />
    <glyph glyph-name="agrave.alt" horiz-adv-x="1241" 
d="M324 1374q0 80 77 109q37 10 43 10q61 0 99 -47q100 -119 241 -279l-71 -73q-297 154 -328 168q-61 32 -61 112zM577 188q117 0 197 83t80 204t-80 204t-198 83t-199 -83q-82 -83 -82 -204t82 -204t200 -83zM561 -23q-205 1 -347 147t-142 351t142 351t345 147
q156 0 279 -115l92 92h125v-737h84v-213h-209l-92 92q-109 -115 -277 -115z" />
    <glyph glyph-name="amacron.alt" horiz-adv-x="1241" 
d="M283 1167v164h575v-164h-575zM577 188q117 0 197 83t80 204t-80 204t-198 83t-199 -83q-82 -83 -82 -204t82 -204t200 -83zM561 -23q-205 1 -347 147t-142 351t142 351t345 147q156 0 279 -115l92 92h125v-737h84v-213h-209l-92 92q-109 -115 -277 -115z" />
    <glyph glyph-name="aogonek.alt" horiz-adv-x="1267" 
d="M872 -238q0 70 42 134t85 104h-69l-92 92q-109 -115 -277 -115q-205 1 -347 147t-142 351t142 351t345 147q156 0 279 -115l92 92h125v-737h84v-238q-63 -87 -63 -165t89 -78l-43 -144q-250 16 -250 174zM577 188q117 0 197 83t80 204t-80 204t-198 83t-199 -83
q-82 -83 -82 -204t82 -204t200 -83z" />
    <glyph glyph-name="aring.alt" horiz-adv-x="1241" 
d="M481 1312q0 -44 32 -76t76 -32t77 32q32 32 32 76t-32 76q-33 32 -77 32t-76 -32t-32 -76zM354 1312q0 95 70 165q70 69 166 69t166 -70t70 -164q0 -95 -72 -166q-70 -71 -164 -71t-165 71t-71 166zM577 188q117 0 197 83t80 204t-80 204t-198 83t-199 -83
q-82 -83 -82 -204t82 -204t200 -83zM561 -23q-205 1 -347 147t-142 351t142 351t345 147q156 0 279 -115l92 92h125v-737h84v-213h-209l-92 92q-109 -115 -277 -115z" />
    <glyph glyph-name="atilde.alt" horiz-adv-x="1241" 
d="M401 1212q-41 0 -69 -17t-33 -36l-8 -18l-105 71q4 16 27 55q24 39 49 63t71 43t102 19q55 0 161 -43q106 -44 148 -44q72 0 108 51l10 18l109 -61q-6 -22 -32 -66q-71 -123 -215 -125q-60 0 -172 45q-110 45 -151 45zM577 188q117 0 197 83t80 204t-80 204t-198 83
t-199 -83q-82 -83 -82 -204t82 -204t200 -83zM561 -23q-205 1 -347 147t-142 351t142 351t345 147q156 0 279 -115l92 92h125v-737h84v-213h-209l-92 92q-109 -115 -277 -115z" />
    <glyph glyph-name="ae.alt" horiz-adv-x="1789" 
d="M1283 778q-87 0 -153 -52t-81 -134h462q-10 80 -75 133q-66 53 -153 53zM577 188q117 0 197 83t80 204t-80 204t-198 83t-199 -83q-82 -83 -82 -204t82 -204t200 -83zM561 -23q-205 1 -347 147t-142 351t142 351t345 147q156 0 279 -115l92 92h63v-84q127 106 305 106
t303 -139q124 -140 128 -335l-80 -80h-611q8 -104 79 -170t151 -66q152 0 235 133l180 -98q-61 -104 -163 -172t-244 -68t-283 105v-82h-63l-92 92q-109 -115 -277 -115z" />
    <glyph glyph-name="aeacute.alt" horiz-adv-x="1789" 
d="M1016 1493q6 0 42 -11t56 -44t21 -68q0 -80 -60 -108l-327 -168l-74 73q23 25 244 279q37 47 98 47zM1283 778q-87 0 -153 -52t-81 -134h462q-10 80 -75 133q-66 53 -153 53zM577 188q117 0 197 83t80 204t-80 204t-198 83t-199 -83q-82 -83 -82 -204t82 -204t200 -83z
M561 -23q-205 1 -347 147t-142 351t142 351t345 147q156 0 279 -115l92 92h63v-84q127 106 305 106t303 -139q124 -140 128 -335l-80 -80h-611q8 -104 79 -170t151 -66q152 0 235 133l180 -98q-61 -104 -163 -172t-244 -68t-283 105v-82h-63l-92 92q-109 -115 -277 -115z
" />
    <glyph glyph-name="e.js" horiz-adv-x="937" 
d="M659 592v-174h-366q8 -104 79 -170q72 -66 174 -66t183 92l166 -120q-143 -176 -350 -176t-340 146t-133 350t133 351t335 147t328 -157q-10 -10 -58 -60t-79 -79q-66 102 -194 102q-86 0 -152 -52t-82 -134h356z" />
    <glyph glyph-name="g.alt" horiz-adv-x="1218" 
d="M577 188q117 0 197 83t80 204t-80 204t-198 83t-199 -83q-82 -83 -82 -204t82 -204t200 -83zM836 -25v115q-119 -113 -275 -113q-205 1 -347 147t-142 351t142 351t345 147q158 0 277 -115l92 92h127v-999q-1 -233 -147 -354t-347 -121q-137 0 -249 58t-158 159l190 98
q31 -47 90 -75t127 -27q113 1 194 73t81 213z" />
    <glyph glyph-name="gbreve.alt" horiz-adv-x="1218" 
d="M301 1331h164q0 -35 30 -57q31 -22 71 -23q40 0 69 23t29 57h165q-1 -94 -77 -154q-76 -61 -187 -61t-187 60t-77 155zM577 188q117 0 197 83t80 204t-80 204t-198 83t-199 -83q-82 -83 -82 -204t82 -204t200 -83zM836 -25v115q-119 -113 -275 -113q-205 1 -347 147
t-142 351t142 351t345 147q158 0 277 -115l92 92h127v-999q-1 -233 -147 -354t-347 -121q-137 0 -249 58t-158 159l190 98q31 -47 90 -75t127 -27q113 1 194 73t81 213z" />
    <glyph glyph-name="gcircumflex.alt" horiz-adv-x="1218" 
d="M367 1102l-97 59l197 305h180l197 -305l-96 -59l-191 221zM577 188q117 0 197 83t80 204t-80 204t-198 83t-199 -83q-82 -83 -82 -204t82 -204t200 -83zM836 -25v115q-119 -113 -275 -113q-205 1 -347 147t-142 351t142 351t345 147q158 0 277 -115l92 92h127v-999
q-1 -233 -147 -354t-347 -121q-137 0 -249 58t-158 159l190 98q31 -47 90 -75t127 -27q113 1 194 73t81 213z" />
    <glyph glyph-name="gcommaaccent.alt" horiz-adv-x="1218" 
d="M577 188q117 0 197 83t80 204t-80 204t-198 83t-199 -83q-82 -83 -82 -204t82 -204t200 -83zM836 -25v115q-119 -113 -275 -113q-205 1 -347 147t-142 351t142 351t345 147q158 0 277 -115l92 92h127v-999q-1 -233 -147 -354t-347 -121q-137 0 -249 58t-158 159l190 98
q31 -47 90 -75t127 -27q113 1 194 73t81 213zM797 1464v-67l-138 -332h-249l254 399h133z" />
    <glyph glyph-name="gdotaccent.alt" horiz-adv-x="1218" 
d="M432 1266q0 61 43 105t105 44t105 -44q44 -44 44 -105q0 -60 -44 -104t-105 -44t-105 43q-43 44 -43 105zM577 188q117 0 197 83t80 204t-80 204t-198 83t-199 -83q-82 -83 -82 -204t82 -204t200 -83zM836 -25v115q-119 -113 -275 -113q-205 1 -347 147t-142 351t142 351
t345 147q158 0 277 -115l92 92h127v-999q-1 -233 -147 -354t-347 -121q-137 0 -249 58t-158 159l190 98q31 -47 90 -75t127 -27q113 1 194 73t81 213z" />
    <glyph glyph-name="k.alt" horiz-adv-x="1054" 
d="M383 0h-219v1462l72 74h147v-950l334 364h268l-326 -362l396 -588h-256l-283 428l-133 -149v-279z" />
    <glyph glyph-name="kcommaaccent.alt" horiz-adv-x="1054" 
d="M383 0h-219v1462l72 74h147v-950l334 364h268l-326 -362l396 -588h-256l-283 428l-133 -149v-279zM342 -512v68l137 333h250l-254 -401h-133z" />
    <glyph glyph-name="wgrave.alt" 
d="M537 1374q0 80 77 109q35 10 43 10q61 0 99 -47q100 -119 241 -279l-71 -73q-297 154 -328 168q-61 32 -61 112zM1272 950h229l-262 -950h-283l-190 623l-188 -623h-283l-264 950h229l182 -717l222 717h204l224 -717z" />
    <glyph glyph-name="wacute.alt" 
d="M881 1493q8 0 43 -11t55 -44t20 -68q0 -80 -59 -108l-328 -168l-73 73q23 25 243 279q37 47 99 47zM1272 950h229l-262 -950h-283l-190 623l-188 -623h-283l-264 950h229l182 -717l222 717h204l224 -717z" />
    <glyph glyph-name="wdieresis.alt" 
d="M403 1266q0 61 42 105q41 44 103 44t106 -44t44 -105q0 -60 -44 -104t-105 -44t-104 43q-42 44 -42 105zM844 1266q0 61 42 105t103 44t105 -44t45 -105q0 -60 -44 -104q-43 -44 -105 -44t-104 44t-42 104zM1272 950h229l-262 -950h-283l-190 623l-188 -623h-283
l-264 950h229l182 -717l222 717h204l224 -717z" />
    <glyph glyph-name="wcircumflex.alt" 
d="M573 1100l-96 59l197 305h180l197 -305l-97 -59l-190 221zM1272 950h229l-262 -950h-283l-190 623l-188 -623h-283l-264 950h229l182 -717l222 717h204l224 -717z" />
    <glyph glyph-name="f.alt" horiz-adv-x="585" 
d="M61 754v196h123v183q0 209 114 312t277 103q49 0 80 -10l-30 -201q-12 2 -31 2q-190 0 -191 -235v-154h152v-196h-152v-754h-219v754h-123z" />
    <glyph glyph-name="A.js" horiz-adv-x="1513" 
d="M780 1241q-68 -313 -139 -588q264 -117 508 -342l-240 930h-129zM228 551q-50 0 -115 -8l-58 213q55 6 139 6t226 -33q115 422 168 733h483l402 -1462l-224 -37q-315 362 -659 508q-258 -893 -547 -1198l-145 272q236 219 467 992q-87 14 -137 14z" />
    <glyph glyph-name="B.js" horiz-adv-x="1384" 
d="M1036 432q0 172 -196 230l-424 -168v-273h327q293 0 293 211zM696 1239h-280v-516l284 106q150 55 211 111t62 141q-1 158 -277 158zM184 0v1462h527q247 0 365 -104t118 -277q0 -115 -37 -189t-123 -130q238 -109 238 -361q0 -181 -124 -291t-357 -110h-607z" />
    <glyph glyph-name="E.js" horiz-adv-x="1366" 
d="M201 1462h1052v-221h-823v-399q174 78 444 121l162 -215q-350 -8 -606 -134v-391h823v-223h-1052v469q-20 -16 -51 -47l-89 133q72 82 140 141v766z" />
    <glyph glyph-name="H.js" horiz-adv-x="1527" 
d="M438 1462v-764q128 17 354 80q226 64 298 82v602q0 94 32 171q33 77 78 119q96 90 170 112l33 8l74 -215q-97 0 -138 -98q-16 -41 -16 -97v-557q53 6 104 6v-221q-51 0 -104 -6v-684h-233v637q-61 -16 -286 -82t-366 -80v-504q0 -217 -136 -336t-331 -118q-33 0 -94 8
l-47 184h23q180 -1 266 63t86 228v475q-66 12 -103 23v221q41 -14 103 -23v766h233z" />
    <glyph glyph-name="M.js" horiz-adv-x="1894" 
d="M184 0v1462h258q49 -131 131 -263q82 -131 191 -281t162 -238q66 25 144 115t177 262q100 172 174 334l31 71h258v-1462h-231v1071q-23 -65 -103 -210q-162 -292 -340 -398q84 -205 84 -412q0 -53 -2 -80l-256 -137q14 100 14 240t-55 305q-55 164 -123 262t-154 223
q-87 125 -124 205v-1069h-236z" />
    <glyph glyph-name="N.js" horiz-adv-x="1650" 
d="M430 -29q0 -217 -137 -336t-332 -118q-33 0 -94 8l-47 184h22q180 -1 266 63t87 228v1462h280l748 -1140v1140q0 94 32 171q33 77 79 119q100 91 169 112l33 8l74 -215q-99 0 -137 -98q-16 -41 -17 -97v-1462h-303l-723 1104v-1133z" />
    <glyph glyph-name="O.alt" horiz-adv-x="1691" 
d="M851 197q222 0 369 157q146 158 146 377q0 164 -86 255t-221 91q-96 0 -207 -53l-133 233q131 72 305 72q225 0 402 -138q86 -69 138 -187t52 -273q0 -324 -224 -542t-540 -218q-316 1 -540 223t-224 570t206 568t558 255q102 10 176 33t94 39l23 18l53 -231
q-51 -41 -146 -56q-32 -6 -106 -16t-94 -14q-230 -37 -372 -200t-142 -402t145 -401q146 -160 368 -160z" />
    <glyph glyph-name="R.js" horiz-adv-x="1333" 
d="M973 1032q0 86 -68 146t-209 61h-280v-588l239 92l-45 37l129 94q39 -20 82 -57q152 86 152 215zM184 0v1462h527q125 0 222 -40q166 -68 233 -241q28 -73 28 -149q0 -215 -223 -370q260 -330 362 -797l-207 -174q-18 227 -111 461t-216 415q-16 -8 -88 -37l-295 -114
v-416h-232z" />
    <glyph glyph-name="S.js" horiz-adv-x="1380" 
d="M127 1075q0 197 163 307q164 110 366 111q202 0 356 -65t215 -199l-219 -164q-59 205 -355 205q-121 0 -205 -51t-83 -133q-1 -82 67 -137q68 -54 169 -79q101 -24 220 -60t220 -77t169 -129t68 -219t-87 -223t-226 -142q-72 -25 -182 -42q-111 -17 -193 -33t-171 -50
q-184 -70 -263 -305l-207 205q80 192 301 275q152 57 346 94q193 37 260 57q170 51 170 171t-178 177q-80 27 -175 51t-191 58t-177 79q-80 46 -129 127t-49 191z" />
    <glyph glyph-name="V.js" horiz-adv-x="1366" 
d="M688 268q81 160 216 684q48 186 112 372t160 324q98 138 225 187l67 -252q-94 -19 -181 -205t-145 -416q-177 -701 -308 -962h-291l-523 1462h259z" />
    <glyph glyph-name="W.js" horiz-adv-x="1935" 
d="M1241 238q59 104 119 300q59 196 110 388t116 384t162 334t222 191l68 -252q-94 -19 -181 -205t-145 -416q-181 -712 -309 -962h-305l-129 401l-127 -401h-307l-515 1462h261l415 -1224l150 491l-232 733h228l125 -409l129 409h227l-233 -733z" />
    <glyph glyph-name="a.js" horiz-adv-x="1103" 
d="M227 754v196h693v-737h81v-213h-163l-123 123v287q-102 49 -246 49q-84 0 -127 -44t-43 -108q0 -65 46 -109t137 -44t147 75l55 -182q-78 -68 -217 -67q-184 0 -280 91q-95 91 -95 229t94 236t262 97q168 0 267 -41v162h-488z" />
    <glyph glyph-name="adieresis.js" horiz-adv-x="1103" 
d="M227 754v196h693v-737h81v-213h-163l-123 123v287q-102 49 -246 49q-84 0 -127 -44t-43 -108q0 -65 46 -109t137 -44t147 75l55 -182q-78 -68 -217 -67q-184 0 -280 91q-95 91 -95 229t94 236t262 97q168 0 267 -41v162h-488zM184 1266q0 61 44 106t104 45t105 -45
q44 -45 44 -106q0 -60 -44 -104t-104 -44t-105 43q-44 44 -44 105zM625 1266q0 61 44 106t104 45q61 0 105 -45t44 -106q0 -60 -44 -104t-104 -44t-105 44q-44 44 -44 104z" />
    <glyph glyph-name="e.end" horiz-adv-x="1011" 
d="M525 778q-83 0 -143 -78t-83 -221l449 168q-27 59 -84 95t-139 36zM719 -506q-287 0 -467 236t-180 562t129 504t336 177q152 1 261 -87t156 -227l-47 -137l-618 -233q0 -242 125 -399t346 -156q94 0 211 35l-74 -250q-92 -25 -178 -25z" />
    <glyph glyph-name="h.js" horiz-adv-x="1126" 
d="M1001 573q1 -65 -33 -199t-34 -212t35 -162h-221q-33 84 -33 168t33 220t32 185q0 81 -52 133t-144 52t-147 -44q-54 -44 -54 -110v-604h-219v1483q0 63 -44 97t-116 58l119 142q100 -20 180 -91t80 -208v-613q115 100 261 100t251 -107q106 -108 106 -288z" />
    <glyph glyph-name="k.js" horiz-adv-x="1091" 
d="M383 1536v-602q102 37 228 37t238 -78t112 -202q0 -125 -79 -191t-196 -92l399 -408h-280l-361 383l52 172q123 0 186 36t63 82q0 47 -49 73q-48 26 -134 26t-179 -37v-735h-219v1462l72 74h147z" />
    <glyph glyph-name="m.js" horiz-adv-x="1720" 
d="M1595 573q1 -65 -33 -199t-34 -212t35 -162h-222q-33 84 -33 168t33 220t33 200t-52 118q-52 52 -144 52t-147 -44q-54 -44 -54 -110v-604h-217v573q0 93 -46 143t-125 50t-132 -43t-54 -109v-614h-219v754h-84v196h176l93 -92q133 111 285 111t243 -123q117 123 326 123
q160 0 266 -108t106 -288z" />
    <glyph glyph-name="n.js" horiz-adv-x="1146" 
d="M1022 573q0 -65 -34 -199t-34 -212t35 -162h-221q-33 84 -33 168t33 220t33 200t-52 118q-53 52 -145 52t-146 -44t-55 -110v-604h-219v754h-82v196h174l91 -88q133 106 287 106t262 -107q106 -108 106 -288z" />
    <glyph glyph-name="n.end" horiz-adv-x="1116" 
d="M989 573q1 -84 -23 -260q-24 -175 -24 -285t52 -203t184 -140l-154 -185q-297 100 -297 531q1 105 21 293t20 264t-48 122q-48 48 -128 48t-134 -44t-55 -110v-604h-219v754h-82v196h174l91 -88q133 106 279 106t244 -98t99 -297z" />
    <glyph glyph-name="s.end" horiz-adv-x="956" 
d="M854 227q0 -183 -137 -261q-63 -36 -143 -60t-171 -52q-92 -28 -178 -66t-169 -112t-140 -176l-80 279q48 102 150 167q102 64 208 90t205 46q227 45 227 139q0 51 -36 83q-37 32 -74 46t-136 46t-201 100q-101 68 -100 200q1 131 110 204q110 73 235 73t222 -38
t147 -104l-142 -194q-43 143 -202 143q-66 0 -106 -24t-40 -62q0 -61 191 -114q35 -10 53 -17q307 -94 307 -336z" />
    <glyph glyph-name="u.js" horiz-adv-x="1085" 
d="M542 -23q-182 0 -311 117t-129 320q0 66 35 198t35 205q0 72 -31 133l203 45q37 -74 37 -162t-28 -223t-27 -196q0 -109 64 -167q64 -59 155 -59q90 0 143 58t53 168v536h222v-536q0 -203 -119 -320q-120 -117 -302 -117z" />
    <glyph glyph-name="udieresis.js" horiz-adv-x="1085" 
d="M542 -23q-182 0 -311 117t-129 320q0 66 35 198t35 205q0 72 -31 133l203 45q37 -74 37 -162t-28 -223t-27 -196q0 -109 64 -167q64 -59 155 -59q90 0 143 58t53 168v536h222v-536q0 -203 -119 -320q-120 -117 -302 -117zM178 1266q0 61 44 106t104 45t105 -45
q44 -45 44 -106q0 -60 -44 -104t-104 -44t-105 43q-44 44 -44 105zM618 1266q0 61 44 106t105 45q60 0 104 -45t44 -106q0 -60 -44 -104t-104 -44q-61 0 -105 44t-44 104z" />
    <glyph glyph-name="v.js" horiz-adv-x="983" 
d="M942 1059q0 -449 -309 -1045l-236 -55l-377 991h230l264 -717q23 45 56 120q34 75 89 268q91 321 33 509l217 183q33 -117 33 -254z" />
    <glyph glyph-name="w.js" horiz-adv-x="1351" 
d="M1311 1059q0 -442 -320 -1059h-200l-107 289l-106 -289h-236l-322 950h230l231 -708l107 305l-148 403h185l59 -172l59 172h185l-150 -403l111 -305q197 424 196 719q1 95 -22 169l215 183q33 -117 33 -254z" />
    <glyph glyph-name="y.js" horiz-adv-x="1140" 
d="M420 -227q0 98 41 227h-80l-361 950h222l286 -743h21q177 347 210 419q35 74 69 186t34 186t-14 126l221 189q31 -85 31 -225t-70 -338t-152 -351q-222 -410 -223 -575q0 -131 117 -199l-82 -268q-270 164 -270 416z" />
    <glyph glyph-name="emdash.alt" horiz-adv-x="2656" 
d="M350 205l-309 246q264 116 975 131q286 6 564 16t501 56t315 137l219 -78q-74 -125 -291 -200q-216 -75 -496 -103t-562 -48q-282 -18 -539 -54q-258 -36 -377 -103z" />
    <glyph glyph-name="endash.alt" horiz-adv-x="1597" 
d="M709 721l378 -10q190 0 250 57l219 -78q-87 -128 -391 -148q-133 -8 -275 -18t-301 -50t-280 -120l-268 246q274 121 668 121z" />
    <glyph glyph-name="roman_numeral_one" horiz-adv-x="686" 
d="M102 209h131v1001h-131v209h482v-209h-131v-1001h131v-209h-482v209z" />
    <glyph glyph-name="roman_numeral_five" horiz-adv-x="1376" 
d="M819 1210v209h475v-209h-143l-246 -1001h127v-209h-688v209h127l-246 1001h-143v209h475v-209h-98l227 -1001h2l230 1001h-99z" />
    <glyph glyph-name="roman_numeral_ten" horiz-adv-x="1271" 
d="M82 1210v209h475v-209h-76l156 -305l156 305h-74v209h471v-209h-154l-270 -501l270 -500h174v-209h-491v209h74l-156 303l-154 -303h74v-209h-496v209h175l272 500l-272 501h-154z" />
    <glyph glyph-name="roman_numeral_fifty" horiz-adv-x="1024" 
d="M47 0v209h117v1001h-117v209h475v-209h-123v-1001h342v102h222v-311h-916z" />
    <glyph glyph-name="roman_numeral_hundred" horiz-adv-x="1245" 
d="M975 1419h209v-368h-191q-74 162 -282 161q-178 0 -286 -137t-108 -364t108 -365t275 -137q167 0 265 141l206 -145q-73 -101 -197 -163t-261 -62q-256 0 -439 199q-182 200 -182 533q0 334 178 528t443 194q162 0 262 -95v80z" />
    <glyph glyph-name="roman_numeral_fivehundred" horiz-adv-x="1101" 
d="M428 1210h-41v-1001h41q149 0 224 41t111 94q79 116 79 361q0 312 -123 415q-61 50 -129 70t-162 20zM86 1210v209h356q289 0 452 -163t163 -554t-169 -546q-169 -156 -446 -156h-356v209h78v1001h-78z" />
    <glyph glyph-name="roman_numeral_thousand" horiz-adv-x="1611" 
d="M1075 0v209h127v792l-317 -542h-158l-313 538v-788h123v-209h-476v209h123v1001h-123v209h355l391 -659l389 659h354v-209h-123v-1001h123v-209h-475z" />
    <glyph glyph-name="W.alt" horiz-adv-x="1929" 
d="M389 0l-358 1462h243l281 -1173l283 1173h254l280 -1173l283 1173h243l-358 -1462h-321l-254 1077l-254 -1077h-322z" />
    <glyph glyph-name="Wacute.alt" horiz-adv-x="1929" 
d="M1077 1948q8 0 43 -12q36 -12 56 -44q20 -33 20 -67q0 -80 -59 -109l-328 -168l-74 74q23 25 244 279q37 47 98 47zM389 0l-358 1462h243l281 -1173l283 1173h254l280 -1173l283 1173h243l-358 -1462h-321l-254 1077l-254 -1077h-322z" />
    <glyph glyph-name="Wcirumflex.alt" horiz-adv-x="1929" 
d="M774 1552l-96 60l196 305h181l196 -305l-96 -60l-190 222zM389 0l-358 1462h243l281 -1173l283 1173h254l280 -1173l283 1173h243l-358 -1462h-321l-254 1077l-254 -1077h-322z" />
    <glyph glyph-name="Wdieresis.alt" horiz-adv-x="1929" 
d="M596 1755q0 61 42 105t103 45q61 0 105 -44q44 -43 45 -105q0 -62 -44 -105q-43 -43 -105 -43t-104 43t-42 104zM1036 1755q0 61 42 105t104 45q62 0 105 -44q44 -43 44 -105t-44 -105t-105 -43t-104 43q-42 43 -42 104zM389 0l-358 1462h243l281 -1173l283 1173h254
l280 -1173l283 1173h243l-358 -1462h-321l-254 1077l-254 -1077h-322z" />
    <glyph glyph-name="Wgrave.alt" horiz-adv-x="1929" 
d="M1196 1622l-72 -74q-297 154 -327 168q-61 31 -61 112t77 109q37 10 43 11q61 0 98 -47q101 -119 242 -279zM389 0l-358 1462h243l281 -1173l283 1173h254l280 -1173l283 1173h243l-358 -1462h-321l-254 1077l-254 -1077h-322z" />
    <glyph glyph-name="germandbls.alt" horiz-adv-x="1142" 
d="M1106 313q0 -153 -121 -243t-311 -90q-117 0 -215 43l55 192q66 -31 150 -31t139 41t55 93q0 87 -108 151q-45 27 -92 57q-46 31 -77 85q-32 53 -32 123q0 115 91 231q91 110 91 224q0 65 -44 107t-119 43q-75 0 -132 -54t-57 -152v-1133h-219v1133q0 197 120 307
t290 108q170 0 279 -106q110 -106 109 -256q0 -86 -26 -157t-56 -109q-84 -100 -84 -170q1 -70 112 -143q46 -29 91 -65t78 -96t33 -133z" />
    <glyph glyph-name="gj.alt" horiz-adv-x="1722" 
d="M577 188q117 0 197 83t80 204t-80 204t-198 83t-199 -83q-82 -83 -82 -204t82 -204t200 -83zM836 -25v115q-119 -113 -275 -113q-205 1 -347 147t-142 351t142 351t345 147q158 0 277 -115l92 92h127v-999q-1 -233 -147 -354t-347 -121q-137 0 -249 58t-158 159l190 98
q31 -47 90 -75t127 -27q113 1 194 73t81 213zM1298 1335q0 66 46 112t112 46q64 0 110 -46q46 -47 46 -111t-46 -110t-112 -46t-111 44t-45 111zM1370 -170v924h-127v196h268l78 -78v-1036q0 -186 -91 -273t-243 -87q-70 0 -116 20l41 213q32 -16 76 -16q44 -1 79 35t35 102
z" />
    <glyph glyph-name="zerosuperior.slash" horiz-adv-x="735" 
d="M369 805q82 1 123 69q40 68 40 164t-43 164l-161 -393q25 -4 41 -4zM203 1031q0 -99 47 -165l162 398q-18 6 -43 6q-82 0 -124 -70t-42 -169zM369 1432q153 0 235 -117t82 -279t-82 -278t-236 -117q-154 0 -236 117q-83 116 -83 278t83 279t237 117z" />
    <glyph glyph-name="zeroinferior.slash" horiz-adv-x="735" 
d="M369 154q82 0 123 68q40 68 40 165q0 96 -43 164l-161 -393q25 -4 41 -4zM369 618q-82 0 -124 -70t-42 -168q0 -99 47 -165l162 397q-18 6 -43 6zM369 780q153 0 235 -116t82 -279q0 -162 -82 -279q-82 -116 -236 -116t-236 116q-83 116 -83 279t83 279t237 116z" />
    <glyph glyph-name="ordfeminine.alt" horiz-adv-x="1030" 
d="M498 883q84 0 141 59q57 60 57 148t-57 147t-141 59t-144 -59t-59 -147q0 -88 59 -148q60 -59 144 -59zM471 692q-163 0 -277 118t-114 281t114 279t275 117q121 0 223 -90l74 71h131v-569h68v-188h-179l-73 73q-31 -32 -98 -62t-144 -30z" />
    </font>
</defs>
</svg>
